<?xml version="1.0" encoding="UTF-8"?>
<!DOCTYPE svg PUBLIC "-//W3C//DTD SVG 1.1//EN" "http://www.w3.org/Graphics/SVG/1.1/DTD/svg11.dtd">
<svg xmlns="http://www.w3.org/2000/svg" version="1.1" width="182px" height="82px" style="shape-rendering:geometricPrecision; text-rendering:geometricPrecision; image-rendering:optimizeQuality; fill-rule:evenodd; clip-rule:evenodd" xmlns:xlink="http://www.w3.org/1999/xlink">
<g><path style="opacity:1" fill="#4c565d" d="M -0.5,-0.5 C 4.83333,-0.5 10.1667,-0.5 15.5,-0.5C 14.962,1.11723 14.6287,2.7839 14.5,4.5C 12.7376,4.35729 11.0709,4.69063 9.5,5.5C 7.81925,8.05465 5.98592,9.72132 4,10.5C 2.58296,8.60218 1.08296,6.93551 -0.5,5.5C -0.5,3.5 -0.5,1.5 -0.5,-0.5 Z"/></g>
<g><path style="opacity:1" fill="#4b565d" d="M 74.5,-0.5 C 81.1667,-0.5 87.8333,-0.5 94.5,-0.5C 94.2155,1.87713 94.2155,4.0438 94.5,6C 92.5035,6.75978 90.8368,7.25978 89.5,7.5C 90.0253,8.19238 90.6919,8.69238 91.5,9C 90.6919,9.30762 90.0253,9.80762 89.5,10.5C 90.7757,11.6446 92.109,11.6446 93.5,10.5C 93.7876,11.8605 94.121,13.1938 94.5,14.5C 93.5272,15.7914 92.5272,15.7914 91.5,14.5C 90.6143,15.325 90.281,16.325 90.5,17.5C 89.7784,17.0825 89.2784,16.4158 89,15.5C 88,16.8333 87,16.8333 86,15.5C 85.0053,16.0659 84.172,16.7326 83.5,17.5C 82.1667,18.1667 80.8333,18.8333 79.5,19.5C 79.5,18.5 79.5,17.5 79.5,16.5C 81.6697,14.8467 84.003,13.3467 86.5,12C 84.1382,10.2687 81.4715,9.43536 78.5,9.5C 78.9452,6.63544 78.2785,4.13544 76.5,2C 76.8333,1.66667 77.1667,1.33333 77.5,1C 76.2625,0.76791 75.2625,0.26791 74.5,-0.5 Z"/></g>
<g><path style="opacity:1" fill="#4c575d" d="M 124.5,-0.5 C 132.833,-0.5 141.167,-0.5 149.5,-0.5C 149.245,0.936101 148.912,2.4361 148.5,4C 150.235,5.9845 151.568,5.65117 152.5,3C 150.604,1.93539 150.437,1.10206 152,0.5C 153.371,1.58118 154.871,2.41452 156.5,3C 154.205,3.9836 154.539,4.81694 157.5,5.5C 158.172,6.94916 158.839,8.2825 159.5,9.5C 159.649,10.552 159.483,11.552 159,12.5C 156.613,10.6452 154.946,8.31183 154,5.5C 153.149,8.61243 151.983,8.94576 150.5,6.5C 149.438,7.42463 149.438,8.42463 150.5,9.5C 147.956,9.89567 145.789,9.22901 144,7.5C 143.667,10.1667 143.333,12.8333 143,15.5C 141.354,16.7786 140.187,18.4453 139.5,20.5C 137.557,20.5353 135.557,20.2019 133.5,19.5C 133.859,17.2341 133.192,15.4007 131.5,14C 133.221,12.5629 134.721,13.0629 136,15.5C 137.074,14.3816 138.24,13.3816 139.5,12.5C 137.647,12.08 135.813,11.7467 134,11.5C 133.546,9.46358 132.713,7.63025 131.5,6C 132.167,5 132.833,4 133.5,3C 133.43,2.2352 133.097,1.7352 132.5,1.5C 130.105,0.185748 127.605,0.185748 125,1.5C 124.536,0.905578 124.369,0.238911 124.5,-0.5 Z"/></g>
<g><path style="opacity:1" fill="#4c565e" d="M 149.5,-0.5 C 154.833,-0.5 160.167,-0.5 165.5,-0.5C 165.244,1.91243 166.244,3.57909 168.5,4.5C 167.726,5.71118 166.893,5.71118 166,4.5C 165.46,6.13459 165.96,7.46792 167.5,8.5C 167,8.83333 166.5,9.16667 166,9.5C 164.606,8.38674 163.439,7.0534 162.5,5.5C 161.571,6.68884 161.238,8.02218 161.5,9.5C 160.833,9.5 160.167,9.5 159.5,9.5C 158.839,8.2825 158.172,6.94916 157.5,5.5C 154.539,4.81694 154.205,3.9836 156.5,3C 154.871,2.41452 153.371,1.58118 152,0.5C 150.437,1.10206 150.604,1.93539 152.5,3C 151.568,5.65117 150.235,5.9845 148.5,4C 148.912,2.4361 149.245,0.936101 149.5,-0.5 Z"/></g>
<g><path style="opacity:1" fill="#4d575e" d="M 107.5,-0.5 C 113.167,-0.5 118.833,-0.5 124.5,-0.5C 124.369,0.238911 124.536,0.905578 125,1.5C 127.605,0.185748 130.105,0.185748 132.5,1.5C 131.516,4.07037 130.349,4.07037 129,1.5C 128.781,2.93801 128.281,4.27135 127.5,5.5C 125.232,4.28148 123.399,2.61481 122,0.5C 121.5,0.666667 121,0.833333 120.5,1C 123.113,2.07117 123.113,2.90451 120.5,3.5C 118.926,3.06291 117.759,2.06291 117,0.5C 117.414,3.54323 117.581,6.87656 117.5,10.5C 117.767,12.9761 117.101,13.6428 115.5,12.5C 115.785,10.712 115.452,9.04533 114.5,7.5C 112.002,10.2537 110.002,9.92039 108.5,6.5C 110.555,5.81278 112.221,4.64611 113.5,3C 111.837,2.73508 110.337,3.23508 109,4.5C 108.667,3.83333 108.333,3.16667 108,2.5C 107.29,3.97326 106.124,4.63993 104.5,4.5C 104.721,2.3364 105.721,0.669736 107.5,-0.5 Z"/></g>
<g><path style="opacity:1" fill="#4c575e" d="M 15.5,-0.5 C 20.5,-0.5 25.5,-0.5 30.5,-0.5C 28.8912,2.70697 29.2245,5.70697 31.5,8.5C 30.3112,9.42869 28.9778,9.76202 27.5,9.5C 26.2502,9.42265 25.4169,8.75598 25,7.5C 23.8904,9.03683 22.3904,9.7035 20.5,9.5C 20.5,11.1667 20.5,12.8333 20.5,14.5C 18.901,14.7678 17.5676,14.4345 16.5,13.5C 17.6946,13.1344 18.3613,12.301 18.5,11C 17.8333,9.66667 17.1667,8.33333 16.5,7C 17.943,4.92228 17.2763,4.08894 14.5,4.5C 14.6287,2.7839 14.962,1.11723 15.5,-0.5 Z"/></g>
<g><path style="opacity:1" fill="#4c575e" d="M 58.5,-0.5 C 63.5,-0.5 68.5,-0.5 73.5,-0.5C 71.4059,2.71942 71.7392,5.88609 74.5,9C 73.0186,9.98032 71.6853,11.147 70.5,12.5C 72.0072,13.7388 73.1739,13.4054 74,11.5C 74.0976,13.6193 74.9309,15.286 76.5,16.5C 77.293,15.6446 76.9597,14.8113 75.5,14C 78.309,11.9436 79.6423,12.7769 79.5,16.5C 79.5,17.5 79.5,18.5 79.5,19.5C 75.5444,19.9401 71.2111,20.2734 66.5,20.5C 66.735,23.8119 65.735,24.6453 63.5,23C 63.9054,22.0546 64.572,21.3879 65.5,21C 65.0853,18.9737 64.0853,17.4737 62.5,16.5C 62.1667,16.5 61.8333,16.5 61.5,16.5C 61.1667,15.8333 60.8333,15.1667 60.5,14.5C 62.1667,13.1667 63.8333,11.8333 65.5,10.5C 65.281,9.32496 65.6143,8.32496 66.5,7.5C 67.8689,9.12404 69.5355,9.62404 71.5,9C 70.6721,8.08529 69.6721,7.41862 68.5,7C 68.8333,6.66667 69.1667,6.33333 69.5,6C 68.2396,4.88695 67.073,4.72028 66,5.5C 65.7508,4.37598 65.2508,3.37598 64.5,2.5C 62.0808,2.08627 60.0808,1.08627 58.5,-0.5 Z"/></g>
<g><path style="opacity:1" fill="#4b565e" d="M 32.5,-0.5 C 41.1667,-0.5 49.8333,-0.5 58.5,-0.5C 60.0808,1.08627 62.0808,2.08627 64.5,2.5C 65.2508,3.37598 65.7508,4.37598 66,5.5C 67.073,4.72028 68.2396,4.88695 69.5,6C 69.1667,6.33333 68.8333,6.66667 68.5,7C 69.6721,7.41862 70.6721,8.08529 71.5,9C 69.5355,9.62404 67.8689,9.12404 66.5,7.5C 65.6143,8.32496 65.281,9.32496 65.5,10.5C 64.448,10.6495 63.448,10.4828 62.5,10C 63.4061,8.30054 63.7394,6.4672 63.5,4.5C 60.4017,4.41253 60.0684,4.91253 62.5,6C 61.1281,6.63086 59.7948,7.29753 58.5,8C 59.6274,9.05674 60.1274,10.2234 60,11.5C 57.869,10.879 55.5357,9.87902 53,8.5C 52.2496,9.12576 51.4162,9.62576 50.5,10C 56.0726,10.5005 56.5726,12.0005 52,14.5C 50.1739,13.9896 50.0072,13.1562 51.5,12C 49.5273,11.5045 47.5273,11.3379 45.5,11.5C 45.666,7.62658 44.666,6.95992 42.5,9.5C 42.5,8.16667 42.5,6.83333 42.5,5.5C 40.3618,5.70298 38.6951,6.70298 37.5,8.5C 32.2875,6.59051 32.2875,5.75717 37.5,6C 35.8753,5.14748 35.5419,4.14748 36.5,3C 38.4965,2.24022 40.1632,1.74022 41.5,1.5C 38.2299,-0.214331 35.7299,0.452335 34,3.5C 33.2086,2.25501 32.7086,0.921673 32.5,-0.5 Z"/></g>
<g><path style="opacity:1" fill="#4c575d" d="M 120.5,3.5 C 119.237,7.06612 120.403,8.06612 124,6.5C 124.483,7.44802 124.649,8.44802 124.5,9.5C 128.247,7.97945 129.914,9.47945 129.5,14C 129.333,15.1667 129.167,16.3333 129,17.5C 128.64,15.5789 127.806,13.9122 126.5,12.5C 125.914,12.7093 125.414,13.0426 125,13.5C 124.751,12.376 124.251,11.376 123.5,10.5C 123.167,10.8333 122.833,11.1667 122.5,11.5C 124.05,15.172 123.55,15.8387 121,13.5C 120.833,14 120.667,14.5 120.5,15C 122.576,16.2438 123.576,18.0771 123.5,20.5C 121.508,20.3285 119.842,20.9951 118.5,22.5C 117.692,22.1924 117.025,21.6924 116.5,21C 121.836,18.488 121.503,16.988 115.5,16.5C 115.5,15.1667 115.5,13.8333 115.5,12.5C 117.101,13.6428 117.767,12.9761 117.5,10.5C 117.581,6.87656 117.414,3.54323 117,0.5C 117.759,2.06291 118.926,3.06291 120.5,3.5 Z"/></g>
<g><path style="opacity:1" fill="#4b575d" d="M 95.5,-0.5 C 99.5,-0.5 103.5,-0.5 107.5,-0.5C 105.721,0.669736 104.721,2.3364 104.5,4.5C 106.124,4.63993 107.29,3.97326 108,2.5C 108.333,3.16667 108.667,3.83333 109,4.5C 110.337,3.23508 111.837,2.73508 113.5,3C 112.221,4.64611 110.555,5.81278 108.5,6.5C 110.002,9.92039 112.002,10.2537 114.5,7.5C 115.452,9.04533 115.785,10.712 115.5,12.5C 114.373,13.1217 113.373,13.955 112.5,15C 113.299,17.2276 112.299,18.5609 109.5,19C 110.451,19.7175 110.617,20.5509 110,21.5C 108.812,20.4366 108.312,19.1033 108.5,17.5C 107.178,17.67 106.011,17.3366 105,16.5C 104.667,17.1667 104.333,17.8333 104,18.5C 103.035,16.7397 101.868,16.4063 100.5,17.5C 101.34,18.735 102.34,19.735 103.5,20.5C 101.5,20.5 99.5,20.5 97.5,20.5C 97.5,24.1667 97.5,27.8333 97.5,31.5C 96.2652,31.2786 95.2652,30.6119 94.5,29.5C 93.8933,29.6236 93.56,29.9569 93.5,30.5C 92.2905,30.0679 91.2905,29.4013 90.5,28.5C 92.4233,28.205 94.0899,27.3717 95.5,26C 91.5144,25.9687 87.8478,24.9687 84.5,23C 86.2487,21.7085 88.082,20.5418 90,19.5C 90.6839,21.359 91.6839,23.0257 93,24.5C 93.3173,22.6992 93.984,22.3659 95,23.5C 95.7494,22.365 95.5827,21.365 94.5,20.5C 92.8405,19.8284 91.5072,18.8284 90.5,17.5C 90.281,16.325 90.6143,15.325 91.5,14.5C 92.5272,15.7914 93.5272,15.7914 94.5,14.5C 94.4226,15.7498 93.756,16.5831 92.5,17C 94.6038,20.4478 95.9371,20.1145 96.5,16C 100.455,15.4374 104.289,14.6041 108,13.5C 108.889,14.8882 109.389,14.7215 109.5,13C 108.746,9.63995 106.913,7.13995 104,5.5C 100.667,6.5 100.667,7.5 104,8.5C 104.611,12.0876 103.111,13.2542 99.5,12C 97.5101,10.2494 95.1768,9.2494 92.5,9C 94.234,7.26575 96.234,5.93242 98.5,5C 97.552,4.51722 96.552,4.35055 95.5,4.5C 95.5,2.83333 95.5,1.16667 95.5,-0.5 Z"/></g>
<g><path style="opacity:1" fill="#4c575d" d="M 165.5,-0.5 C 170.833,-0.5 176.167,-0.5 181.5,-0.5C 181.5,2.83333 181.5,6.16667 181.5,9.5C 180.265,9.72142 179.265,10.3881 178.5,11.5C 176.844,8.98182 175.511,8.98182 174.5,11.5C 172.265,11.2053 170.265,11.5386 168.5,12.5C 167.262,13.4124 165.928,13.5791 164.5,13C 163.837,11.4815 162.837,10.3149 161.5,9.5C 161.238,8.02218 161.571,6.68884 162.5,5.5C 163.439,7.0534 164.606,8.38674 166,9.5C 166.5,9.16667 167,8.83333 167.5,8.5C 165.96,7.46792 165.46,6.13459 166,4.5C 166.893,5.71118 167.726,5.71118 168.5,4.5C 166.244,3.57909 165.244,1.91243 165.5,-0.5 Z"/></g>
<g><path style="opacity:1" fill="#4b555d" d="M 14.5,4.5 C 17.2763,4.08894 17.943,4.92228 16.5,7C 17.1667,8.33333 17.8333,9.66667 18.5,11C 18.3613,12.301 17.6946,13.1344 16.5,13.5C 16.4894,11.9826 15.8228,10.8159 14.5,10C 15.3802,8.64387 15.7135,7.14387 15.5,5.5C 14.448,5.35055 13.448,5.51722 12.5,6C 11.1667,6.66667 11.1667,7.33333 12.5,8C 11.3279,8.41862 10.3279,9.08529 9.5,10C 12.9667,12.5387 13.4667,15.0387 11,17.5C 10.6827,15.6992 10.016,15.3659 9,16.5C 8.50776,15.451 8.67443,14.451 9.5,13.5C 9.08138,12.3279 8.41471,11.3279 7.5,10.5C 7.46695,11.989 6.96695,13.3224 6,14.5C 5.69238,13.6919 5.19238,13.0253 4.5,12.5C 2.93089,13.714 2.09755,15.3807 2,17.5C 1.23029,18.5981 0.396953,18.5981 -0.5,17.5C -0.5,13.5 -0.5,9.5 -0.5,5.5C 1.08296,6.93551 2.58296,8.60218 4,10.5C 5.98592,9.72132 7.81925,8.05465 9.5,5.5C 11.0709,4.69063 12.7376,4.35729 14.5,4.5 Z"/></g>
<g><path style="opacity:1" fill="#4b555e" d="M 73.5,-0.5 C 73.8333,-0.5 74.1667,-0.5 74.5,-0.5C 75.2625,0.26791 76.2625,0.76791 77.5,1C 77.1667,1.33333 76.8333,1.66667 76.5,2C 78.2785,4.13544 78.9452,6.63544 78.5,9.5C 81.4715,9.43536 84.1382,10.2687 86.5,12C 84.003,13.3467 81.6697,14.8467 79.5,16.5C 79.6423,12.7769 78.309,11.9436 75.5,14C 76.9597,14.8113 77.293,15.6446 76.5,16.5C 74.9309,15.286 74.0976,13.6193 74,11.5C 73.1739,13.4054 72.0072,13.7388 70.5,12.5C 71.6853,11.147 73.0186,9.98032 74.5,9C 71.7392,5.88609 71.4059,2.71942 73.5,-0.5 Z"/></g>
<g><path style="opacity:1" fill="#4c585e" d="M 30.5,-0.5 C 31.1667,-0.5 31.8333,-0.5 32.5,-0.5C 32.7086,0.921673 33.2086,2.25501 34,3.5C 35.7299,0.452335 38.2299,-0.214331 41.5,1.5C 40.1632,1.74022 38.4965,2.24022 36.5,3C 35.5419,4.14748 35.8753,5.14748 37.5,6C 32.2875,5.75717 32.2875,6.59051 37.5,8.5C 38.6951,6.70298 40.3618,5.70298 42.5,5.5C 42.5,6.83333 42.5,8.16667 42.5,9.5C 42.0825,10.2216 41.4158,10.7216 40.5,11C 41.1667,11.3333 41.8333,11.6667 42.5,12C 40.393,13.2635 39.393,15.0968 39.5,17.5C 37.9125,20.7854 35.9125,21.1187 33.5,18.5C 37.8539,16.7952 39.1873,13.7952 37.5,9.5C 33.7104,9.0077 33.0437,9.84103 35.5,12C 33.6061,13.1011 32.9394,14.4345 33.5,16C 29.4854,15.8118 26.4854,17.3118 24.5,20.5C 23.1266,20.3433 21.7932,20.51 20.5,21C 21.2117,23.0267 22.2117,24.0267 23.5,24C 21.9762,25.1942 20.8096,26.6942 20,28.5C 19.3445,25.3252 18.5112,22.3252 17.5,19.5C 19.7961,14.298 20.6294,14.298 20,19.5C 21.3333,18.8333 22.6667,18.1667 24,17.5C 23.8877,15.8217 23.3877,14.155 22.5,12.5C 22.8333,11.8333 23.1667,11.1667 23.5,10.5C 24.1355,12.7946 25.4689,14.4613 27.5,15.5C 27.86,13.3452 27.86,11.3452 27.5,9.5C 28.9778,9.76202 30.3112,9.42869 31.5,8.5C 29.2245,5.70697 28.8912,2.70697 30.5,-0.5 Z"/></g>
<g><path style="opacity:1" fill="#4c565e" d="M 94.5,-0.5 C 94.8333,-0.5 95.1667,-0.5 95.5,-0.5C 95.5,1.16667 95.5,2.83333 95.5,4.5C 96.552,4.35055 97.552,4.51722 98.5,5C 96.234,5.93242 94.234,7.26575 92.5,9C 95.1768,9.2494 97.5101,10.2494 99.5,12C 103.111,13.2542 104.611,12.0876 104,8.5C 100.667,7.5 100.667,6.5 104,5.5C 106.913,7.13995 108.746,9.63995 109.5,13C 109.389,14.7215 108.889,14.8882 108,13.5C 104.289,14.6041 100.455,15.4374 96.5,16C 95.9371,20.1145 94.6038,20.4478 92.5,17C 93.756,16.5831 94.4226,15.7498 94.5,14.5C 94.121,13.1938 93.7876,11.8605 93.5,10.5C 92.109,11.6446 90.7757,11.6446 89.5,10.5C 90.0253,9.80762 90.6919,9.30762 91.5,9C 90.6919,8.69238 90.0253,8.19238 89.5,7.5C 90.8368,7.25978 92.5035,6.75978 94.5,6C 94.2155,4.0438 94.2155,1.87713 94.5,-0.5 Z"/></g>
<g><path style="opacity:1" fill="#4b555e" d="M 159.5,9.5 C 160.167,9.5 160.833,9.5 161.5,9.5C 162.837,10.3149 163.837,11.4815 164.5,13C 165.928,13.5791 167.262,13.4124 168.5,12.5C 170.104,13.287 170.771,14.6203 170.5,16.5C 169.325,16.281 168.325,16.6143 167.5,17.5C 168.428,18.7678 168.595,20.1011 168,21.5C 166.209,20.0881 165.042,18.2548 164.5,16C 160.513,15.4608 157.346,13.6275 155,10.5C 153.065,12.1022 150.899,13.2689 148.5,14C 150.833,14.3333 153.167,14.6667 155.5,15C 157.018,20.2815 158.185,20.4481 159,15.5C 159.21,17.0581 159.71,18.3915 160.5,19.5C 159.791,20.404 158.791,20.7373 157.5,20.5C 156.5,20.5 155.5,20.5 154.5,20.5C 154.48,22.143 155.147,23.4763 156.5,24.5C 155.675,25.3857 154.675,25.719 153.5,25.5C 153.773,23.549 153.107,22.049 151.5,21C 153.742,18.8709 153.242,17.0376 150,15.5C 148.951,16.5171 147.784,16.6838 146.5,16C 146.944,14.4667 147.277,12.9667 147.5,11.5C 149.423,10.6922 151.423,10.1922 153.5,10C 152.552,9.51722 151.552,9.35055 150.5,9.5C 149.438,8.42463 149.438,7.42463 150.5,6.5C 151.983,8.94576 153.149,8.61243 154,5.5C 154.946,8.31183 156.613,10.6452 159,12.5C 159.483,11.552 159.649,10.552 159.5,9.5 Z"/></g>
<g><path style="opacity:1" fill="#4c585d" d="M 16.5,13.5 C 15.7611,13.369 15.0944,13.5357 14.5,14C 14.2549,15.9114 14.2549,17.9114 14.5,20C 13.5,20.3333 12.5,20.6667 11.5,21C 12.6667,22.5 13.8333,24 15,25.5C 16.4865,24.2586 17.3199,24.7586 17.5,27C 17.5765,29.7561 16.2431,30.9228 13.5,30.5C 13.6567,31.8734 13.49,33.2068 13,34.5C 11.8904,32.9632 10.3904,32.2965 8.5,32.5C 8.5,31.5 8.5,30.5 8.5,29.5C 14.0689,27.1277 13.7355,25.6277 7.5,25C 11.1056,22.7718 11.1056,20.2718 7.5,17.5C 6.54896,16.6744 5.54896,16.5078 4.5,17C 3.95048,18.8446 2.95048,20.3446 1.5,21.5C 0.304408,21.1543 0.304408,20.6543 1.5,20C 0.905578,19.5357 0.238911,19.369 -0.5,19.5C -0.5,18.8333 -0.5,18.1667 -0.5,17.5C 0.396953,18.5981 1.23029,18.5981 2,17.5C 2.09755,15.3807 2.93089,13.714 4.5,12.5C 5.19238,13.0253 5.69238,13.6919 6,14.5C 6.96695,13.3224 7.46695,11.989 7.5,10.5C 8.41471,11.3279 9.08138,12.3279 9.5,13.5C 8.67443,14.451 8.50776,15.451 9,16.5C 10.016,15.3659 10.6827,15.6992 11,17.5C 13.4667,15.0387 12.9667,12.5387 9.5,10C 10.3279,9.08529 11.3279,8.41862 12.5,8C 11.1667,7.33333 11.1667,6.66667 12.5,6C 13.448,5.51722 14.448,5.35055 15.5,5.5C 15.7135,7.14387 15.3802,8.64387 14.5,10C 15.8228,10.8159 16.4894,11.9826 16.5,13.5 Z"/></g>
<g><path style="opacity:1" fill="#4b575d" d="M 65.5,10.5 C 63.8333,11.8333 62.1667,13.1667 60.5,14.5C 57.3484,13.9586 54.8484,14.9586 53,17.5C 52,16.1667 51,16.1667 50,17.5C 48.324,16.9389 46.9906,15.9389 46,14.5C 44.0065,15.914 41.8398,16.914 39.5,17.5C 39.393,15.0968 40.393,13.2635 42.5,12C 41.8333,11.6667 41.1667,11.3333 40.5,11C 41.4158,10.7216 42.0825,10.2216 42.5,9.5C 44.666,6.95992 45.666,7.62658 45.5,11.5C 47.5273,11.3379 49.5273,11.5045 51.5,12C 50.0072,13.1562 50.1739,13.9896 52,14.5C 56.5726,12.0005 56.0726,10.5005 50.5,10C 51.4162,9.62576 52.2496,9.12576 53,8.5C 55.5357,9.87902 57.869,10.879 60,11.5C 60.1274,10.2234 59.6274,9.05674 58.5,8C 59.7948,7.29753 61.1281,6.63086 62.5,6C 60.0684,4.91253 60.4017,4.41253 63.5,4.5C 63.7394,6.4672 63.4061,8.30054 62.5,10C 63.448,10.4828 64.448,10.6495 65.5,10.5 Z"/></g>
<g><path style="opacity:1" fill="#4d565f" d="M 39.5,17.5 C 41.8398,16.914 44.0065,15.914 46,14.5C 46.9906,15.9389 48.324,16.9389 50,17.5C 51,16.1667 52,16.1667 53,17.5C 54.8484,14.9586 57.3484,13.9586 60.5,14.5C 60.8333,15.1667 61.1667,15.8333 61.5,16.5C 59.8467,17.6045 58.18,17.7712 56.5,17C 59.2594,19.4837 58.926,20.6503 55.5,20.5C 55.6602,22.1992 55.4935,23.8659 55,25.5C 54.5172,24.552 54.3505,23.552 54.5,22.5C 52.3718,21.3709 50.0385,21.2042 47.5,22C 44.3333,25.8333 41.1667,29.6667 38,33.5C 37.5012,29.5138 37.3345,25.5138 37.5,21.5C 35.5,21.5 33.5,21.5 31.5,21.5C 29.6102,19.8053 27.2769,19.4719 24.5,20.5C 26.4854,17.3118 29.4854,15.8118 33.5,16C 32.9394,14.4345 33.6061,13.1011 35.5,12C 33.0437,9.84103 33.7104,9.0077 37.5,9.5C 39.1873,13.7952 37.8539,16.7952 33.5,18.5C 35.9125,21.1187 37.9125,20.7854 39.5,17.5 Z"/></g>
<g><path style="opacity:1" fill="#4b565e" d="M 132.5,1.5 C 133.097,1.7352 133.43,2.2352 133.5,3C 132.833,4 132.167,5 131.5,6C 132.713,7.63025 133.546,9.46358 134,11.5C 135.813,11.7467 137.647,12.08 139.5,12.5C 138.24,13.3816 137.074,14.3816 136,15.5C 134.721,13.0629 133.221,12.5629 131.5,14C 133.192,15.4007 133.859,17.2341 133.5,19.5C 131.914,20.4132 130.414,20.4132 129,19.5C 128.667,20.1667 128.333,20.8333 128,21.5C 126.457,18.5809 124.957,18.2476 123.5,20.5C 123.576,18.0771 122.576,16.2438 120.5,15C 120.667,14.5 120.833,14 121,13.5C 123.55,15.8387 124.05,15.172 122.5,11.5C 122.833,11.1667 123.167,10.8333 123.5,10.5C 124.251,11.376 124.751,12.376 125,13.5C 125.414,13.0426 125.914,12.7093 126.5,12.5C 127.806,13.9122 128.64,15.5789 129,17.5C 129.167,16.3333 129.333,15.1667 129.5,14C 129.914,9.47945 128.247,7.97945 124.5,9.5C 124.649,8.44802 124.483,7.44802 124,6.5C 120.403,8.06612 119.237,7.06612 120.5,3.5C 123.113,2.90451 123.113,2.07117 120.5,1C 121,0.833333 121.5,0.666667 122,0.5C 123.399,2.61481 125.232,4.28148 127.5,5.5C 128.281,4.27135 128.781,2.93801 129,1.5C 130.349,4.07037 131.516,4.07037 132.5,1.5 Z"/></g>
<g><path style="opacity:1" fill="#4b565d" d="M 115.5,12.5 C 115.5,13.8333 115.5,15.1667 115.5,16.5C 121.503,16.988 121.836,18.488 116.5,21C 117.025,21.6924 117.692,22.1924 118.5,22.5C 119.842,20.9951 121.508,20.3285 123.5,20.5C 125.524,23.6295 127.858,23.9628 130.5,21.5C 131.415,22.3279 132.081,23.3279 132.5,24.5C 131.637,25.7264 131.637,27.0597 132.5,28.5C 128.258,28.0792 124.258,28.7459 120.5,30.5C 118.833,27.8333 117.167,27.8333 115.5,30.5C 111.866,27.8417 108.199,27.8417 104.5,30.5C 103.513,27.2317 103.18,23.8984 103.5,20.5C 102.34,19.735 101.34,18.735 100.5,17.5C 101.868,16.4063 103.035,16.7397 104,18.5C 104.333,17.8333 104.667,17.1667 105,16.5C 106.011,17.3366 107.178,17.67 108.5,17.5C 108.312,19.1033 108.812,20.4366 110,21.5C 110.617,20.5509 110.451,19.7175 109.5,19C 112.299,18.5609 113.299,17.2276 112.5,15C 113.373,13.955 114.373,13.1217 115.5,12.5 Z"/></g>
<g><path style="opacity:1" fill="#4d595e" d="M 150.5,9.5 C 151.552,9.35055 152.552,9.51722 153.5,10C 151.423,10.1922 149.423,10.6922 147.5,11.5C 147.277,12.9667 146.944,14.4667 146.5,16C 147.784,16.6838 148.951,16.5171 150,15.5C 153.242,17.0376 153.742,18.8709 151.5,21C 153.107,22.049 153.773,23.549 153.5,25.5C 154.675,25.719 155.675,25.3857 156.5,24.5C 155.147,23.4763 154.48,22.143 154.5,20.5C 155.5,20.5 156.5,20.5 157.5,20.5C 157.783,21.2891 158.283,21.9558 159,22.5C 160.183,21.269 161.349,21.269 162.5,22.5C 161.167,23.1667 159.833,23.8333 158.5,24.5C 159.274,25.7112 160.107,25.7112 161,24.5C 161.346,26.8477 162.513,28.6811 164.5,30C 163,30.8333 161.833,32 161,33.5C 160.283,32.9558 159.783,32.2891 159.5,31.5C 159.657,30.1266 159.49,28.7932 159,27.5C 155.454,29.7752 151.621,30.1085 147.5,28.5C 147.5,25.8333 147.5,23.1667 147.5,20.5C 145.5,20.5 143.5,20.5 141.5,20.5C 141.5,29.1667 141.5,37.8333 141.5,46.5C 140.833,46.8333 140.167,47.1667 139.5,47.5C 137.922,42.7229 137.089,37.7229 137,32.5C 135.75,30.8065 134.25,29.4732 132.5,28.5C 131.637,27.0597 131.637,25.7264 132.5,24.5C 132.081,23.3279 131.415,22.3279 130.5,21.5C 127.858,23.9628 125.524,23.6295 123.5,20.5C 124.957,18.2476 126.457,18.5809 128,21.5C 128.333,20.8333 128.667,20.1667 129,19.5C 130.414,20.4132 131.914,20.4132 133.5,19.5C 135.557,20.2019 137.557,20.5353 139.5,20.5C 140.187,18.4453 141.354,16.7786 143,15.5C 143.333,12.8333 143.667,10.1667 144,7.5C 145.789,9.22901 147.956,9.89567 150.5,9.5 Z"/></g>
<g><path style="opacity:1" fill="#81c6e3" d="M 103.5,20.5 C 103.18,23.8984 103.513,27.2317 104.5,30.5C 108.199,27.8417 111.866,27.8417 115.5,30.5C 116.455,36.4093 116.789,42.4093 116.5,48.5C 115.167,48.5 113.833,48.5 112.5,48.5C 112.167,48.5 111.833,48.5 111.5,48.5C 111.666,44.1539 111.499,39.8206 111,35.5C 108.731,32.9456 106.398,32.9456 104,35.5C 103.501,39.8206 103.334,44.1539 103.5,48.5C 101.5,48.5 99.5,48.5 97.5,48.5C 97.5,42.8333 97.5,37.1667 97.5,31.5C 97.5,27.8333 97.5,24.1667 97.5,20.5C 99.5,20.5 101.5,20.5 103.5,20.5 Z"/></g>
<g><path style="opacity:1" fill="#7fc2e0" d="M 147.5,28.5 C 147.5,33.5 147.5,38.5 147.5,43.5C 148.833,43.5 150.167,43.5 151.5,43.5C 151.88,45.698 151.213,47.3646 149.5,48.5C 146.487,48.8928 143.82,48.2261 141.5,46.5C 141.5,37.8333 141.5,29.1667 141.5,20.5C 143.5,20.5 145.5,20.5 147.5,20.5C 147.5,23.1667 147.5,25.8333 147.5,28.5 Z"/></g>
<g><path style="opacity:1" fill="#4c585d" d="M 168.5,12.5 C 170.265,11.5386 172.265,11.2053 174.5,11.5C 177.663,12.6033 178.996,14.6033 178.5,17.5C 176.52,13.867 174.52,14.0336 172.5,18C 173.715,20.0955 174.549,19.9288 175,17.5C 175.483,18.448 175.649,19.448 175.5,20.5C 176.873,20.3433 178.207,20.51 179.5,21C 173.88,20.8849 171.38,23.3849 172,28.5C 170.956,27.3774 170.29,26.0441 170,24.5C 169.735,26.6515 168.735,28.3181 167,29.5C 165.941,29.3699 165.108,28.8699 164.5,28C 164.5,25.6667 164.5,23.3333 164.5,21C 163.683,18.6275 162.35,18.1275 160.5,19.5C 159.71,18.3915 159.21,17.0581 159,15.5C 158.185,20.4481 157.018,20.2815 155.5,15C 153.167,14.6667 150.833,14.3333 148.5,14C 150.899,13.2689 153.065,12.1022 155,10.5C 157.346,13.6275 160.513,15.4608 164.5,16C 165.042,18.2548 166.209,20.0881 168,21.5C 168.595,20.1011 168.428,18.7678 167.5,17.5C 168.325,16.6143 169.325,16.281 170.5,16.5C 170.771,14.6203 170.104,13.287 168.5,12.5 Z"/></g>
<g><path style="opacity:1" fill="#80c4e3" d="M 31.5,21.5 C 33.5,21.5 35.5,21.5 37.5,21.5C 37.3345,25.5138 37.5012,29.5138 38,33.5C 41.1667,29.6667 44.3333,25.8333 47.5,22C 50.0385,21.2042 52.3718,21.3709 54.5,22.5C 50.9499,25.9042 47.6166,29.5709 44.5,33.5C 45.8872,35.21 47.2206,36.8767 48.5,38.5C 50.6158,41.7889 52.9491,44.9556 55.5,48C 52.4791,48.8671 49.8124,48.3671 47.5,46.5C 45.4058,43.3104 43.0725,40.3104 40.5,37.5C 39.2011,38.09 38.3678,39.09 38,40.5C 37.5026,43.146 37.3359,45.8127 37.5,48.5C 36.1667,48.5 34.8333,48.5 33.5,48.5C 31.5467,42.9262 30.88,36.9262 31.5,30.5C 31.5,27.5 31.5,24.5 31.5,21.5 Z"/></g>
<g><path style="opacity:1" fill="#4c565e" d="M 90.5,17.5 C 91.5072,18.8284 92.8405,19.8284 94.5,20.5C 95.5827,21.365 95.7494,22.365 95,23.5C 93.984,22.3659 93.3173,22.6992 93,24.5C 91.6839,23.0257 90.6839,21.359 90,19.5C 88.082,20.5418 86.2487,21.7085 84.5,23C 87.8478,24.9687 91.5144,25.9687 95.5,26C 94.0899,27.3717 92.4233,28.205 90.5,28.5C 87.8333,28.5 85.1667,28.5 82.5,28.5C 80.4508,28.2942 80.1175,27.4609 81.5,26C 80.7069,24.9148 80.0402,23.7481 79.5,22.5C 80.2739,21.2888 81.1072,21.2888 82,22.5C 83.0086,20.9751 83.5086,19.3084 83.5,17.5C 84.172,16.7326 85.0053,16.0659 86,15.5C 87,16.8333 88,16.8333 89,15.5C 89.2784,16.4158 89.7784,17.0825 90.5,17.5 Z"/></g>
<g><path style="opacity:1" fill="#4d595e" d="M 61.5,16.5 C 61.8333,16.5 62.1667,16.5 62.5,16.5C 61.748,18.1003 60.748,19.6003 59.5,21C 60.7111,22.1131 60.7111,23.2798 59.5,24.5C 60,25.5 60.5,26.5 61,27.5C 62.4007,25.8078 64.2341,25.1412 66.5,25.5C 65.3437,27.3873 63.677,28.7206 61.5,29.5C 59.7354,28.5386 57.7354,28.2053 55.5,28.5C 55.5654,28.0618 55.3988,27.7284 55,27.5C 53.1038,29.5299 50.9371,31.1966 48.5,32.5C 47.4173,33.365 47.2506,34.365 48,35.5C 49.586,34.624 51.086,33.624 52.5,32.5C 53.6662,34.3649 53.3329,36.0316 51.5,37.5C 50.1187,35.0712 49.1187,35.4046 48.5,38.5C 47.2206,36.8767 45.8872,35.21 44.5,33.5C 47.6166,29.5709 50.9499,25.9042 54.5,22.5C 54.3505,23.552 54.5172,24.552 55,25.5C 55.4935,23.8659 55.6602,22.1992 55.5,20.5C 58.926,20.6503 59.2594,19.4837 56.5,17C 58.18,17.7712 59.8467,17.6045 61.5,16.5 Z"/></g>
<g><path style="opacity:1" fill="#4b555d" d="M 62.5,16.5 C 64.0853,17.4737 65.0853,18.9737 65.5,21C 64.572,21.3879 63.9054,22.0546 63.5,23C 65.735,24.6453 66.735,23.8119 66.5,20.5C 71.2111,20.2734 75.5444,19.9401 79.5,19.5C 80.8333,18.8333 82.1667,18.1667 83.5,17.5C 83.5086,19.3084 83.0086,20.9751 82,22.5C 81.1072,21.2888 80.2739,21.2888 79.5,22.5C 80.0402,23.7481 80.7069,24.9148 81.5,26C 80.1175,27.4609 80.4508,28.2942 82.5,28.5C 82.1583,29.3382 81.4916,29.6716 80.5,29.5C 78.3792,29.6747 76.3792,29.3414 74.5,28.5C 74.1667,28.5 73.8333,28.5 73.5,28.5C 73.9251,25.8864 75.2584,23.8864 77.5,22.5C 72.865,20.521 69.1983,21.521 66.5,25.5C 64.2341,25.1412 62.4007,25.8078 61,27.5C 60.5,26.5 60,25.5 59.5,24.5C 60.7111,23.2798 60.7111,22.1131 59.5,21C 60.748,19.6003 61.748,18.1003 62.5,16.5 Z"/></g>
<g><path style="opacity:1" fill="#80c5e2" d="M 55.5,28.5 C 57.7354,28.2053 59.7354,28.5386 61.5,29.5C 61.3343,33.8461 61.501,38.1794 62,42.5C 64.5918,43.9817 66.9251,43.6483 69,41.5C 69.499,37.1794 69.6657,32.8461 69.5,28.5C 70.8333,28.5 72.1667,28.5 73.5,28.5C 73.8333,28.5 74.1667,28.5 74.5,28.5C 74.0664,35.383 74.7331,42.0497 76.5,48.5C 73.4532,49.1446 71.2865,48.1446 70,45.5C 69.6012,45.7284 69.4346,46.0618 69.5,46.5C 64.6703,49.4973 60.1703,49.164 56,45.5C 55.5006,39.8431 55.3339,34.1764 55.5,28.5 Z"/></g>
<g><path style="opacity:1" fill="#80c5e3" d="M 82.5,28.5 C 85.1667,28.5 87.8333,28.5 90.5,28.5C 91.2905,29.4013 92.2905,30.0679 93.5,30.5C 94.5593,32.0699 94.0593,33.4032 92,34.5C 90.2927,33.5415 88.4594,32.8748 86.5,32.5C 84.9996,32.4528 83.9996,33.1195 83.5,34.5C 86.9397,36.2595 90.4397,37.9262 94,39.5C 95.3351,43.6081 94.1684,46.6081 90.5,48.5C 87.5,48.5 84.5,48.5 81.5,48.5C 77.6855,47.2017 76.8521,44.8684 79,41.5C 81.0983,43.0492 83.4316,44.0492 86,44.5C 87.6624,44.6125 88.8291,43.9458 89.5,42.5C 85.8638,41.1212 82.3638,39.4545 79,37.5C 78.1093,34.5024 78.6093,31.8357 80.5,29.5C 81.4916,29.6716 82.1583,29.3382 82.5,28.5 Z"/></g>
<g><path style="opacity:1" fill="#82c8e4" d="M 132.5,28.5 C 134.25,29.4732 135.75,30.8065 137,32.5C 137.089,37.7229 137.922,42.7229 139.5,47.5C 136.692,49.1671 134.525,48.5005 133,45.5C 132.283,46.0442 131.783,46.7109 131.5,47.5C 129.565,48.1495 127.565,48.4828 125.5,48.5C 123.784,48.3713 122.117,48.038 120.5,47.5C 120.5,47.1667 120.5,46.8333 120.5,46.5C 118.753,42.812 119.42,39.6453 122.5,37C 125.882,36.8236 129.215,36.3236 132.5,35.5C 129.442,31.8571 125.942,31.5237 122,34.5C 121.209,33.255 120.709,31.9217 120.5,30.5C 124.258,28.7459 128.258,28.0792 132.5,28.5 Z"/></g>
<g><path style="opacity:1" fill="#4a545d" d="M 181.5,9.5 C 181.5,14.8333 181.5,20.1667 181.5,25.5C 179.723,23.6286 177.723,22.962 175.5,23.5C 174.231,25.6948 174.231,27.8615 175.5,30C 173.324,30.1629 171.491,30.9963 170,32.5C 168.89,30.9632 167.39,30.2965 165.5,30.5C 165.5,31.5 165.5,32.5 165.5,33.5C 164.883,33.3893 164.383,33.056 164,32.5C 162.968,34.0267 161.801,35.36 160.5,36.5C 160.096,35.2436 159.429,34.0769 158.5,33C 158.57,32.2352 158.903,31.7352 159.5,31.5C 159.783,32.2891 160.283,32.9558 161,33.5C 161.833,32 163,30.8333 164.5,30C 162.513,28.6811 161.346,26.8477 161,24.5C 160.107,25.7112 159.274,25.7112 158.5,24.5C 159.833,23.8333 161.167,23.1667 162.5,22.5C 161.349,21.269 160.183,21.269 159,22.5C 158.283,21.9558 157.783,21.2891 157.5,20.5C 158.791,20.7373 159.791,20.404 160.5,19.5C 162.35,18.1275 163.683,18.6275 164.5,21C 164.5,23.3333 164.5,25.6667 164.5,28C 165.108,28.8699 165.941,29.3699 167,29.5C 168.735,28.3181 169.735,26.6515 170,24.5C 170.29,26.0441 170.956,27.3774 172,28.5C 171.38,23.3849 173.88,20.8849 179.5,21C 178.207,20.51 176.873,20.3433 175.5,20.5C 175.649,19.448 175.483,18.448 175,17.5C 174.549,19.9288 173.715,20.0955 172.5,18C 174.52,14.0336 176.52,13.867 178.5,17.5C 178.996,14.6033 177.663,12.6033 174.5,11.5C 175.511,8.98182 176.844,8.98182 178.5,11.5C 179.265,10.3881 180.265,9.72142 181.5,9.5 Z"/></g>
<g><path style="opacity:1" fill="#4b565e" d="M 27.5,9.5 C 27.86,11.3452 27.86,13.3452 27.5,15.5C 25.4689,14.4613 24.1355,12.7946 23.5,10.5C 23.1667,11.1667 22.8333,11.8333 22.5,12.5C 23.3877,14.155 23.8877,15.8217 24,17.5C 22.6667,18.1667 21.3333,18.8333 20,19.5C 20.6294,14.298 19.7961,14.298 17.5,19.5C 18.5112,22.3252 19.3445,25.3252 20,28.5C 20.8096,26.6942 21.9762,25.1942 23.5,24C 22.2117,24.0267 21.2117,23.0267 20.5,21C 21.7932,20.51 23.1266,20.3433 24.5,20.5C 24.369,21.2389 24.5357,21.9056 25,22.5C 26.0113,21.6634 27.1779,21.33 28.5,21.5C 30.8166,29.9929 29.6499,30.9929 25,24.5C 25.0468,28.2831 23.5468,31.2831 20.5,33.5C 26.0758,33.3458 26.7424,35.3458 22.5,39.5C 23.6085,41.2141 22.9418,41.8808 20.5,41.5C 20.5,40.1667 20.5,38.8333 20.5,37.5C 18.8967,37.3118 17.5634,37.8118 16.5,39C 17.7875,40.4095 18.9542,41.9095 20,43.5C 20.3826,42.944 20.8826,42.6107 21.5,42.5C 21.4588,44.7453 20.6255,45.4119 19,44.5C 18.2496,45.1258 17.4162,45.6258 16.5,46C 17.1095,48.0581 18.1095,48.8914 19.5,48.5C 19.1373,49.1835 18.8039,49.8501 18.5,50.5C 17.5,50.5 16.5,50.5 15.5,50.5C 15.9167,47.9208 15.25,45.7542 13.5,44C 18.4801,43.474 18.8134,41.974 14.5,39.5C 15.4847,37.9017 15.6514,36.235 15,34.5C 14.6924,35.3081 14.1924,35.9747 13.5,36.5C 12.3132,35.3473 11.3132,35.3473 10.5,36.5C 8.54899,36.7733 7.04899,36.1066 6,34.5C 5.66667,34.8333 5.33333,35.1667 5,35.5C 4.87896,33.2729 4.04562,31.4396 2.5,30C 6.93161,29.3772 7.26494,28.3772 3.5,27C 4.96062,25.6491 6.29396,24.1491 7.5,22.5C 6.67504,21.6143 5.67504,21.281 4.5,21.5C 4.5,22.8333 4.5,24.1667 4.5,25.5C 2.63998,26.0715 0.973309,26.0715 -0.5,25.5C -0.5,23.5 -0.5,21.5 -0.5,19.5C 0.238911,19.369 0.905578,19.5357 1.5,20C 0.304408,20.6543 0.304408,21.1543 1.5,21.5C 2.95048,20.3446 3.95048,18.8446 4.5,17C 5.54896,16.5078 6.54896,16.6744 7.5,17.5C 11.1056,20.2718 11.1056,22.7718 7.5,25C 13.7355,25.6277 14.0689,27.1277 8.5,29.5C 8.5,30.5 8.5,31.5 8.5,32.5C 10.3904,32.2965 11.8904,32.9632 13,34.5C 13.49,33.2068 13.6567,31.8734 13.5,30.5C 16.2431,30.9228 17.5765,29.7561 17.5,27C 17.3199,24.7586 16.4865,24.2586 15,25.5C 13.8333,24 12.6667,22.5 11.5,21C 12.5,20.6667 13.5,20.3333 14.5,20C 14.2549,17.9114 14.2549,15.9114 14.5,14C 15.0944,13.5357 15.7611,13.369 16.5,13.5C 17.5676,14.4345 18.901,14.7678 20.5,14.5C 20.5,12.8333 20.5,11.1667 20.5,9.5C 22.3904,9.7035 23.8904,9.03683 25,7.5C 25.4169,8.75598 26.2502,9.42265 27.5,9.5 Z"/></g>
<g><path style="opacity:1" fill="#4c585e" d="M 31.5,21.5 C 31.5,24.5 31.5,27.5 31.5,30.5C 29.3219,33.3422 27.1553,36.3422 25,39.5C 24.2888,41.3668 24.7888,42.8668 26.5,44C 25.175,43.8516 24.0084,44.0183 23,44.5C 22.7216,43.5842 22.2216,42.9175 21.5,42.5C 20.8826,42.6107 20.3826,42.944 20,43.5C 18.9542,41.9095 17.7875,40.4095 16.5,39C 17.5634,37.8118 18.8967,37.3118 20.5,37.5C 20.5,38.8333 20.5,40.1667 20.5,41.5C 22.9418,41.8808 23.6085,41.2141 22.5,39.5C 26.7424,35.3458 26.0758,33.3458 20.5,33.5C 23.5468,31.2831 25.0468,28.2831 25,24.5C 29.6499,30.9929 30.8166,29.9929 28.5,21.5C 27.1779,21.33 26.0113,21.6634 25,22.5C 24.5357,21.9056 24.369,21.2389 24.5,20.5C 27.2769,19.4719 29.6102,19.8053 31.5,21.5 Z"/></g>
<g><path style="opacity:1" fill="#4c5662" d="M 73.5,28.5 C 72.1667,28.5 70.8333,28.5 69.5,28.5C 69.6657,32.8461 69.499,37.1794 69,41.5C 66.9251,43.6483 64.5918,43.9817 62,42.5C 61.501,38.1794 61.3343,33.8461 61.5,29.5C 63.677,28.7206 65.3437,27.3873 66.5,25.5C 69.1983,21.521 72.865,20.521 77.5,22.5C 75.2584,23.8864 73.9251,25.8864 73.5,28.5 Z"/></g>
<g><path style="opacity:1" fill="#4c575e" d="M 10.5,36.5 C 10.9382,36.4346 11.2716,36.6012 11.5,37C 9.37229,38.6226 8.03895,40.7893 7.5,43.5C 3.49842,40.5021 2.33175,41.1688 4,45.5C 4.55563,43.4049 5.05563,43.2382 5.5,45C 5.09464,45.9454 4.42797,46.6121 3.5,47C 4.33663,48.0113 4.66997,49.1779 4.5,50.5C 7.20485,50.6198 7.87151,49.6198 6.5,47.5C 8.34777,43.8504 9.68111,43.8504 10.5,47.5C 10.1971,49.1143 9.53046,50.4477 8.5,51.5C 6.89578,52.287 6.22911,53.6203 6.5,55.5C 4.30198,56.0671 1.96864,56.0671 -0.5,55.5C -0.5,45.5 -0.5,35.5 -0.5,25.5C 0.973309,26.0715 2.63998,26.0715 4.5,25.5C 4.5,24.1667 4.5,22.8333 4.5,21.5C 5.67504,21.281 6.67504,21.6143 7.5,22.5C 6.29396,24.1491 4.96062,25.6491 3.5,27C 7.26494,28.3772 6.93161,29.3772 2.5,30C 4.04562,31.4396 4.87896,33.2729 5,35.5C 5.33333,35.1667 5.66667,34.8333 6,34.5C 7.04899,36.1066 8.54899,36.7733 10.5,36.5 Z"/></g>
<g><path style="opacity:1" fill="#505c62" d="M 120.5,30.5 C 120.709,31.9217 121.209,33.255 122,34.5C 125.942,31.5237 129.442,31.8571 132.5,35.5C 129.215,36.3236 125.882,36.8236 122.5,37C 119.42,39.6453 118.753,42.812 120.5,46.5C 118.896,47.287 118.229,48.6203 118.5,50.5C 117.178,50.33 116.011,50.6634 115,51.5C 114.302,50.3094 113.469,49.3094 112.5,48.5C 113.833,48.5 115.167,48.5 116.5,48.5C 116.789,42.4093 116.455,36.4093 115.5,30.5C 117.167,27.8333 118.833,27.8333 120.5,30.5 Z"/></g>
<g><path style="opacity:1" fill="#4c565e" d="M 181.5,25.5 C 181.5,31.1667 181.5,36.8333 181.5,42.5C 180.282,43.7311 178.949,44.8978 177.5,46C 180.186,49.4762 179.853,49.9762 176.5,47.5C 173.559,50.1287 172.893,49.462 174.5,45.5C 173.975,44.8076 173.308,44.3076 172.5,44C 174.5,43.6667 176.5,43.3333 178.5,43C 176.951,41.786 175.785,40.286 175,38.5C 173.686,39.3128 172.519,40.3128 171.5,41.5C 170.808,40.9747 170.308,40.3081 170,39.5C 169.333,40.8333 168.333,41.8333 167,42.5C 166.383,41.5509 166.549,40.7175 167.5,40C 166.262,40.0773 165.262,39.9106 164.5,39.5C 164.833,38.5 165.5,37.8333 166.5,37.5C 167.609,38.5896 168.609,38.5896 169.5,37.5C 167.579,36.6761 166.246,35.3428 165.5,33.5C 165.5,32.5 165.5,31.5 165.5,30.5C 167.39,30.2965 168.89,30.9632 170,32.5C 171.491,30.9963 173.324,30.1629 175.5,30C 174.231,27.8615 174.231,25.6948 175.5,23.5C 177.723,22.962 179.723,23.6286 181.5,25.5 Z"/></g>
<g><path style="opacity:1" fill="#4c5660" d="M 126.5,39.5 C 128.827,39.2471 130.827,39.9137 132.5,41.5C 130.782,44.0139 128.449,44.8472 125.5,44C 124.257,42.184 124.59,40.684 126.5,39.5 Z"/></g>
<g><path style="opacity:1" fill="#4c585e" d="M 159.5,31.5 C 158.903,31.7352 158.57,32.2352 158.5,33C 159.429,34.0769 160.096,35.2436 160.5,36.5C 159.662,36.8417 159.328,37.5084 159.5,38.5C 154.764,38.8853 154.431,40.2186 158.5,42.5C 160.677,41.4958 161.011,42.1625 159.5,44.5C 157.287,47.0801 155.12,47.0801 153,44.5C 152.349,46.235 152.515,47.9017 153.5,49.5C 151.364,50.4724 150.197,52.1391 150,54.5C 149.517,53.552 149.351,52.552 149.5,51.5C 148.127,51.6567 146.793,51.49 145.5,51C 147.437,50.8784 148.77,50.045 149.5,48.5C 151.213,47.3646 151.88,45.698 151.5,43.5C 150.167,43.5 148.833,43.5 147.5,43.5C 147.5,38.5 147.5,33.5 147.5,28.5C 151.621,30.1085 155.454,29.7752 159,27.5C 159.49,28.7932 159.657,30.1266 159.5,31.5 Z"/></g>
<g><path style="opacity:1" fill="#4c575d" d="M 165.5,33.5 C 166.246,35.3428 167.579,36.6761 169.5,37.5C 168.609,38.5896 167.609,38.5896 166.5,37.5C 165.5,37.8333 164.833,38.5 164.5,39.5C 165.262,39.9106 166.262,40.0773 167.5,40C 166.549,40.7175 166.383,41.5509 167,42.5C 168.333,41.8333 169.333,40.8333 170,39.5C 170.308,40.3081 170.808,40.9747 171.5,41.5C 172.519,40.3128 173.686,39.3128 175,38.5C 175.785,40.286 176.951,41.786 178.5,43C 176.5,43.3333 174.5,43.6667 172.5,44C 173.308,44.3076 173.975,44.8076 174.5,45.5C 172.893,49.462 173.559,50.1287 176.5,47.5C 179.853,49.9762 180.186,49.4762 177.5,46C 178.949,44.8978 180.282,43.7311 181.5,42.5C 181.5,45.1667 181.5,47.8333 181.5,50.5C 179.266,50.3801 177.099,50.7135 175,51.5C 173.108,51.2231 171.775,50.2231 171,48.5C 168.877,51.9704 167.71,51.9704 167.5,48.5C 166.448,48.6495 165.448,48.4828 164.5,48C 168.531,45.7943 168.364,45.2943 164,46.5C 164.574,44.2244 164.408,41.8911 163.5,39.5C 161.901,39.7678 160.568,39.4345 159.5,38.5C 159.328,37.5084 159.662,36.8417 160.5,36.5C 161.801,35.36 162.968,34.0267 164,32.5C 164.383,33.056 164.883,33.3893 165.5,33.5 Z"/></g>
<g><path style="opacity:1" fill="#4c575e" d="M 31.5,30.5 C 30.88,36.9262 31.5467,42.9262 33.5,48.5C 33.7622,51.691 35.0955,54.3577 37.5,56.5C 38.3081,56.1924 38.9747,55.6924 39.5,55C 38.1667,53.6667 36.8333,52.3333 35.5,51C 37.445,51.1282 39.2784,50.9615 41,50.5C 42.1581,50.9981 42.9915,51.8315 43.5,53C 41.6798,54.8067 40.5131,56.9733 40,59.5C 39.6667,58.8333 39.3333,58.1667 39,57.5C 38.5774,58.9561 37.7441,59.4561 36.5,59C 35.2986,58.0975 34.4652,56.9308 34,55.5C 33.2797,57.1124 33.4464,58.6124 34.5,60C 29.9924,60.3378 26.6591,62.5044 24.5,66.5C 23.1497,67.4831 22.1497,68.8164 21.5,70.5C 21.1667,69.8333 20.8333,69.1667 20.5,68.5C 21.2776,66.853 22.4443,65.5196 24,64.5C 24.2117,62.2199 25.0451,60.2199 26.5,58.5C 25.5653,55.9405 26.3987,55.2738 29,56.5C 29.1198,52.9887 27.7865,52.6553 25,55.5C 24.7811,54.062 24.2811,52.7287 23.5,51.5C 22.5,53.1667 21.1667,54.5 19.5,55.5C 24.76,55.2192 24.76,56.2192 19.5,58.5C 17.5333,55.9876 17.2,53.321 18.5,50.5C 18.8039,49.8501 19.1373,49.1835 19.5,48.5C 18.1095,48.8914 17.1095,48.0581 16.5,46C 17.4162,45.6258 18.2496,45.1258 19,44.5C 20.6255,45.4119 21.4588,44.7453 21.5,42.5C 22.2216,42.9175 22.7216,43.5842 23,44.5C 24.0084,44.0183 25.175,43.8516 26.5,44C 24.7888,42.8668 24.2888,41.3668 25,39.5C 27.1553,36.3422 29.3219,33.3422 31.5,30.5 Z"/></g>
<g><path style="opacity:1" fill="#4d585f" d="M 93.5,30.5 C 93.56,29.9569 93.8933,29.6236 94.5,29.5C 95.2652,30.6119 96.2652,31.2786 97.5,31.5C 97.5,37.1667 97.5,42.8333 97.5,48.5C 97.3893,49.1174 97.056,49.6174 96.5,50C 97.4158,50.2784 98.0825,50.7784 98.5,51.5C 97.9348,53.42 96.9348,55.0867 95.5,56.5C 94.0687,57.7804 93.4021,59.4471 93.5,61.5C 90.5371,61.8493 88.2038,60.8493 86.5,58.5C 88.3208,58.991 90.3208,58.991 92.5,58.5C 91.8333,57.8333 91.1667,57.1667 90.5,56.5C 91.2431,54.3622 91.9097,52.1956 92.5,50C 92.1639,48.9701 91.4972,48.4701 90.5,48.5C 94.1684,46.6081 95.3351,43.6081 94,39.5C 90.4397,37.9262 86.9397,36.2595 83.5,34.5C 83.9996,33.1195 84.9996,32.4528 86.5,32.5C 88.4594,32.8748 90.2927,33.5415 92,34.5C 94.0593,33.4032 94.5593,32.0699 93.5,30.5 Z"/></g>
<g><path style="opacity:1" fill="#4c575d" d="M 55.5,28.5 C 55.3339,34.1764 55.5006,39.8431 56,45.5C 60.1703,49.164 64.6703,49.4973 69.5,46.5C 69.8633,48.9115 68.8633,50.4115 66.5,51C 67.624,51.2492 68.624,51.7492 69.5,52.5C 68.1581,53.8761 66.8248,55.2094 65.5,56.5C 63.8333,54.5 62.1667,52.5 60.5,50.5C 57.2165,53.561 56.8831,56.7277 59.5,60C 58.8095,61.0674 58.3095,62.2341 58,63.5C 56.1335,62.4734 54.3002,61.4734 52.5,60.5C 52.5198,58.857 51.8532,57.5237 50.5,56.5C 52.4132,55.9488 54.4132,55.7821 56.5,56C 55.0325,54.9025 54.1992,53.4025 54,51.5C 53.6258,52.4162 53.1258,53.2496 52.5,54C 51.0494,53.7374 49.7161,53.9041 48.5,54.5C 49.4203,56.6402 48.7536,58.3068 46.5,59.5C 45.325,59.719 44.325,59.3857 43.5,58.5C 45.1402,54.6073 46.4735,50.6073 47.5,46.5C 49.8124,48.3671 52.4791,48.8671 55.5,48C 52.9491,44.9556 50.6158,41.7889 48.5,38.5C 49.1187,35.4046 50.1187,35.0712 51.5,37.5C 53.3329,36.0316 53.6662,34.3649 52.5,32.5C 51.086,33.624 49.586,34.624 48,35.5C 47.2506,34.365 47.4173,33.365 48.5,32.5C 50.9371,31.1966 53.1038,29.5299 55,27.5C 55.3988,27.7284 55.5654,28.0618 55.5,28.5 Z"/></g>
<g><path style="opacity:1" fill="#4c565e" d="M 159.5,38.5 C 160.568,39.4345 161.901,39.7678 163.5,39.5C 164.408,41.8911 164.574,44.2244 164,46.5C 168.364,45.2943 168.531,45.7943 164.5,48C 165.448,48.4828 166.448,48.6495 167.5,48.5C 167.71,51.9704 168.877,51.9704 171,48.5C 171.775,50.2231 173.108,51.2231 175,51.5C 177.099,50.7135 179.266,50.3801 181.5,50.5C 181.5,51.1667 181.5,51.8333 181.5,52.5C 180.518,53.1408 179.518,53.8075 178.5,54.5C 176.264,54.5835 173.93,54.2502 171.5,53.5C 167.759,55.3308 163.759,55.9975 159.5,55.5C 158.837,57.0419 158.17,58.7086 157.5,60.5C 154.655,60.8328 152.155,61.8328 150,63.5C 149.667,62.5 149.333,61.5 149,60.5C 148.667,60.8333 148.333,61.1667 148,61.5C 147.751,60.376 147.251,59.376 146.5,58.5C 145.604,59.5063 144.938,59.5063 144.5,58.5C 150.054,55.1549 149.72,53.9882 143.5,55C 144.696,55.6543 144.696,56.1543 143.5,56.5C 141.925,55.5435 140.258,54.8769 138.5,54.5C 136.87,56.0261 136.037,58.0261 136,60.5C 134.648,58.4062 134.148,56.0728 134.5,53.5C 135.978,53.762 137.311,53.4287 138.5,52.5C 138.333,52.1667 138.167,51.8333 138,51.5C 135.388,50.7829 133.222,49.4496 131.5,47.5C 131.783,46.7109 132.283,46.0442 133,45.5C 134.525,48.5005 136.692,49.1671 139.5,47.5C 140.167,47.1667 140.833,46.8333 141.5,46.5C 143.82,48.2261 146.487,48.8928 149.5,48.5C 148.77,50.045 147.437,50.8784 145.5,51C 146.793,51.49 148.127,51.6567 149.5,51.5C 149.351,52.552 149.517,53.552 150,54.5C 150.197,52.1391 151.364,50.4724 153.5,49.5C 152.515,47.9017 152.349,46.235 153,44.5C 155.12,47.0801 157.287,47.0801 159.5,44.5C 161.011,42.1625 160.677,41.4958 158.5,42.5C 154.431,40.2186 154.764,38.8853 159.5,38.5 Z"/></g>
<g><path style="opacity:1" fill="#4c575d" d="M 18.5,50.5 C 17.2,53.321 17.5333,55.9876 19.5,58.5C 20.6462,62.3085 20.6462,66.3085 19.5,70.5C 17.8008,70.3398 16.1341,70.5065 14.5,71C 15.5536,72.3876 15.7203,73.8876 15,75.5C 14.2177,72.6898 13.3844,70.0232 12.5,67.5C 10.8348,65.2032 8.5015,63.8699 5.5,63.5C 5.93767,62.4937 6.60433,62.4937 7.5,63.5C 8.73755,59.6893 9.40422,59.6893 9.5,63.5C 11.1439,63.2865 12.6439,63.6198 14,64.5C 15.4038,62.6061 16.5705,60.6061 17.5,58.5C 16.2569,56.3093 15.4236,53.9759 15,51.5C 12.8918,53.3821 11.5585,55.7154 11,58.5C 8.86341,56.6789 8.03008,54.3456 8.5,51.5C 9.53046,50.4477 10.1971,49.1143 10.5,47.5C 9.68111,43.8504 8.34777,43.8504 6.5,47.5C 7.87151,49.6198 7.20485,50.6198 4.5,50.5C 4.66997,49.1779 4.33663,48.0113 3.5,47C 4.42797,46.6121 5.09464,45.9454 5.5,45C 5.05563,43.2382 4.55563,43.4049 4,45.5C 2.33175,41.1688 3.49842,40.5021 7.5,43.5C 8.03895,40.7893 9.37229,38.6226 11.5,37C 11.2716,36.6012 10.9382,36.4346 10.5,36.5C 11.3132,35.3473 12.3132,35.3473 13.5,36.5C 14.1924,35.9747 14.6924,35.3081 15,34.5C 15.6514,36.235 15.4847,37.9017 14.5,39.5C 18.8134,41.974 18.4801,43.474 13.5,44C 15.25,45.7542 15.9167,47.9208 15.5,50.5C 16.5,50.5 17.5,50.5 18.5,50.5 Z"/></g>
<g><path style="opacity:1" fill="#4c585d" d="M 99.5,70.5 C 97.7259,71.881 96.2259,71.5477 95,69.5C 94.6924,70.3081 94.1924,70.9747 93.5,71.5C 92.3735,69.7305 92.8735,68.3972 95,67.5C 96.6117,70.0789 98.1117,70.0789 99.5,67.5C 96.8938,66.3483 94.2272,66.1816 91.5,67C 89.7922,68.0623 89.1255,69.229 89.5,70.5C 87.4024,70.0428 85.7358,69.0428 84.5,67.5C 84.631,66.7611 84.4643,66.0944 84,65.5C 82.9326,66.1905 81.7659,66.6905 80.5,67C 80.8987,68.2941 80.8987,69.7941 80.5,71.5C 78.8333,70.8333 77.1667,70.1667 75.5,69.5C 74.479,68.9984 74.3123,68.3317 75,67.5C 75.7175,68.4506 76.5509,68.6172 77.5,68C 78.1466,66.3905 78.98,64.8905 80,63.5C 82.0258,64.0195 84.0258,64.3528 86,64.5C 87.9412,60.4463 88.7746,60.7797 88.5,65.5C 91.3245,65.9193 93.4912,64.9193 95,62.5C 95.2492,63.624 95.7492,64.624 96.5,65.5C 98.2701,64.1804 98.6034,62.6804 97.5,61C 98.4706,59.7964 99.4706,59.2964 100.5,59.5C 99.6305,56.2374 98.2972,55.9041 96.5,58.5C 95.7025,58.0431 95.3691,57.3764 95.5,56.5C 96.9348,55.0867 97.9348,53.42 98.5,51.5C 100.124,51.3601 101.29,52.0267 102,53.5C 103.835,51.5506 105.001,49.2173 105.5,46.5C 106.711,47.2739 106.711,48.1072 105.5,49C 106.308,49.3076 106.975,49.8076 107.5,50.5C 105.486,52.845 103.153,54.845 100.5,56.5C 101.313,57.8139 102.313,58.9805 103.5,60C 100.833,60.6667 100.833,61.3333 103.5,62C 102.833,63 102.167,64 101.5,65C 103.848,66.6884 104.015,68.5217 102,70.5C 101.023,69.2264 100.189,69.2264 99.5,70.5 Z"/></g>
<g><path style="opacity:1" fill="#4e595f" d="M 74.5,28.5 C 76.3792,29.3414 78.3792,29.6747 80.5,29.5C 78.6093,31.8357 78.1093,34.5024 79,37.5C 82.3638,39.4545 85.8638,41.1212 89.5,42.5C 88.8291,43.9458 87.6624,44.6125 86,44.5C 83.4316,44.0492 81.0983,43.0492 79,41.5C 76.8521,44.8684 77.6855,47.2017 81.5,48.5C 79.486,49.8416 79.1527,51.5083 80.5,53.5C 79.9025,56.8398 78.2359,57.3398 75.5,55C 76.3279,54.0853 77.3279,53.4186 78.5,53C 77.4642,51.3831 76.2975,51.2164 75,52.5C 74.8999,55.4372 74.0666,58.1039 72.5,60.5C 74.0916,62.2249 73.7583,63.2249 71.5,63.5C 69.7033,63.0651 67.7033,63.0651 65.5,63.5C 65.372,60.2259 64.0387,60.0592 61.5,63C 63.1793,65.5645 63.846,68.3979 63.5,71.5C 61.3484,70.9232 61.015,69.7565 62.5,68C 62,67.5 61.5,67 61,66.5C 59.7775,68.6964 57.9442,70.1964 55.5,71C 56.5536,72.3876 56.7203,73.8876 56,75.5C 54.9861,71.9015 54.1527,68.2348 53.5,64.5C 53.3309,65.3966 52.9976,66.3966 52.5,67.5C 51.5832,66.8728 50.5832,66.5394 49.5,66.5C 47.7155,64.8228 47.0488,62.9895 47.5,61C 49.2275,61.5258 50.8941,61.3591 52.5,60.5C 54.3002,61.4734 56.1335,62.4734 58,63.5C 58.3095,62.2341 58.8095,61.0674 59.5,60C 56.8831,56.7277 57.2165,53.561 60.5,50.5C 62.1667,52.5 63.8333,54.5 65.5,56.5C 66.8248,55.2094 68.1581,53.8761 69.5,52.5C 68.624,51.7492 67.624,51.2492 66.5,51C 68.8633,50.4115 69.8633,48.9115 69.5,46.5C 69.4346,46.0618 69.6012,45.7284 70,45.5C 71.2865,48.1446 73.4532,49.1446 76.5,48.5C 74.7331,42.0497 74.0664,35.383 74.5,28.5 Z"/></g>
<g><path style="opacity:1" fill="#4d5562" d="M 111.5,48.5 C 110.434,50.4945 108.768,52.6611 106.5,55C 107.91,55.3678 108.91,56.2011 109.5,57.5C 107.39,57.6492 105.39,57.6492 103.5,57.5C 105.167,58.8333 106.833,60.1667 108.5,61.5C 107.609,62.5896 106.609,62.5896 105.5,61.5C 104.548,63.0453 104.215,64.712 104.5,66.5C 106.592,66.4386 108.092,65.4386 109,63.5C 109.983,65.4484 111.15,67.2817 112.5,69C 109.689,69.1094 107.022,69.2761 104.5,69.5C 104.218,70.7777 103.551,71.7777 102.5,72.5C 101.29,72.0679 100.29,71.4013 99.5,70.5C 100.189,69.2264 101.023,69.2264 102,70.5C 104.015,68.5217 103.848,66.6884 101.5,65C 102.167,64 102.833,63 103.5,62C 100.833,61.3333 100.833,60.6667 103.5,60C 102.313,58.9805 101.313,57.8139 100.5,56.5C 103.153,54.845 105.486,52.845 107.5,50.5C 106.975,49.8076 106.308,49.3076 105.5,49C 106.711,48.1072 106.711,47.2739 105.5,46.5C 105.001,49.2173 103.835,51.5506 102,53.5C 101.29,52.0267 100.124,51.3601 98.5,51.5C 98.0825,50.7784 97.4158,50.2784 96.5,50C 97.056,49.6174 97.3893,49.1174 97.5,48.5C 99.5,48.5 101.5,48.5 103.5,48.5C 103.334,44.1539 103.501,39.8206 104,35.5C 106.398,32.9456 108.731,32.9456 111,35.5C 111.499,39.8206 111.666,44.1539 111.5,48.5 Z"/></g>
<g><path style="opacity:1" fill="#4c585e" d="M 181.5,52.5 C 181.5,55.5 181.5,58.5 181.5,61.5C 179.632,60.2431 177.965,60.5764 176.5,62.5C 177.95,63.8498 178.617,65.5165 178.5,67.5C 177.5,67.5 176.5,67.5 175.5,67.5C 175.414,66.5041 175.748,65.6708 176.5,65C 174.963,62.6872 174.463,60.1872 175,57.5C 176.049,59.1066 177.549,59.7733 179.5,59.5C 179.5,58.1667 179.5,56.8333 179.5,55.5C 176.482,55.7038 173.482,56.0371 170.5,56.5C 170.769,58.4286 170.269,60.0953 169,61.5C 168.692,60.6919 168.192,60.0253 167.5,59.5C 166.646,60.9479 165.646,62.2813 164.5,63.5C 164.977,64.4776 165.643,65.3109 166.5,66C 163.932,65.8809 161.266,66.3809 158.5,67.5C 158.937,65.9256 159.937,64.7589 161.5,64C 160.269,62.8173 160.269,61.6507 161.5,60.5C 162.167,60.8333 162.833,61.1667 163.5,61.5C 164.262,60.3717 164.929,59.2051 165.5,58C 163.689,58.707 161.689,59.207 159.5,59.5C 159.5,58.1667 159.5,56.8333 159.5,55.5C 163.759,55.9975 167.759,55.3308 171.5,53.5C 173.93,54.2502 176.264,54.5835 178.5,54.5C 179.518,53.8075 180.518,53.1408 181.5,52.5 Z"/></g>
<g><path style="opacity:1" fill="#4c585e" d="M 120.5,46.5 C 120.5,46.8333 120.5,47.1667 120.5,47.5C 120.332,50.9974 120.332,54.3307 120.5,57.5C 119.835,55.6309 119.169,53.6309 118.5,51.5C 116.519,52.1054 116.185,53.1054 117.5,54.5C 115.5,55.1667 113.5,55.8333 111.5,56.5C 112.325,57.3857 113.325,57.719 114.5,57.5C 114.657,58.8734 114.49,60.2068 114,61.5C 109.268,58.7683 108.768,59.1016 112.5,62.5C 111.167,63.5 111.167,64.5 112.5,65.5C 113.274,66.7112 114.107,66.7112 115,65.5C 115.483,66.448 115.649,67.448 115.5,68.5C 118.896,68.6329 119.229,69.6329 116.5,71.5C 118.231,74.2388 119.397,73.9055 120,70.5C 120.083,72.5064 120.583,73.5064 121.5,73.5C 122.756,73.4614 123.756,73.9614 124.5,75C 122.101,75.7311 119.935,76.8978 118,78.5C 116.745,77.7894 115.579,76.956 114.5,76C 115.406,74.3005 115.739,72.4672 115.5,70.5C 112.203,70.3287 111.869,70.9954 114.5,72.5C 113.833,72.8333 113.167,73.1667 112.5,73.5C 110.357,71.2235 107.69,69.8901 104.5,69.5C 107.022,69.2761 109.689,69.1094 112.5,69C 111.15,67.2817 109.983,65.4484 109,63.5C 108.092,65.4386 106.592,66.4386 104.5,66.5C 104.215,64.712 104.548,63.0453 105.5,61.5C 106.609,62.5896 107.609,62.5896 108.5,61.5C 106.833,60.1667 105.167,58.8333 103.5,57.5C 105.39,57.6492 107.39,57.6492 109.5,57.5C 108.91,56.2011 107.91,55.3678 106.5,55C 108.768,52.6611 110.434,50.4945 111.5,48.5C 111.833,48.5 112.167,48.5 112.5,48.5C 113.469,49.3094 114.302,50.3094 115,51.5C 116.011,50.6634 117.178,50.33 118.5,50.5C 118.229,48.6203 118.896,47.287 120.5,46.5 Z"/></g>
<g><path style="opacity:1" fill="#4c565e" d="M 47.5,46.5 C 46.4735,50.6073 45.1402,54.6073 43.5,58.5C 44.325,59.3857 45.325,59.719 46.5,59.5C 43.1907,61.0442 39.8574,62.8775 36.5,65C 38.8776,65.9745 38.5443,66.6411 35.5,67C 36.3366,68.0113 36.67,69.1779 36.5,70.5C 37.552,70.3505 38.552,70.5172 39.5,71C 38.6198,72.3561 38.2865,73.8561 38.5,75.5C 39.8333,75.5 41.1667,75.5 42.5,75.5C 43.1408,76.4822 43.8075,77.4822 44.5,78.5C 44.1667,78.8333 43.8333,79.1667 43.5,79.5C 40.0815,77.2468 36.4149,76.0801 32.5,76C 32.8333,76.3333 33.1667,76.6667 33.5,77C 32.5,77.3333 31.5,77.6667 30.5,78C 31.3366,79.0113 31.67,80.1779 31.5,81.5C 30.8333,81.5 30.1667,81.5 29.5,81.5C 29.762,80.0222 29.4287,78.6888 28.5,77.5C 27.7425,78.8114 26.7425,79.3114 25.5,79C 25.9574,78.586 26.2907,78.086 26.5,77.5C 25.5,76.1667 24.5,74.8333 23.5,73.5C 25.3688,71.2783 25.7021,68.945 24.5,66.5C 26.6591,62.5044 29.9924,60.3378 34.5,60C 33.4464,58.6124 33.2797,57.1124 34,55.5C 34.4652,56.9308 35.2986,58.0975 36.5,59C 37.7441,59.4561 38.5774,58.9561 39,57.5C 39.3333,58.1667 39.6667,58.8333 40,59.5C 40.5131,56.9733 41.6798,54.8067 43.5,53C 42.9915,51.8315 42.1581,50.9981 41,50.5C 39.2784,50.9615 37.445,51.1282 35.5,51C 36.8333,52.3333 38.1667,53.6667 39.5,55C 38.9747,55.6924 38.3081,56.1924 37.5,56.5C 35.0955,54.3577 33.7622,51.691 33.5,48.5C 34.8333,48.5 36.1667,48.5 37.5,48.5C 37.3359,45.8127 37.5026,43.146 38,40.5C 38.3678,39.09 39.2011,38.09 40.5,37.5C 43.0725,40.3104 45.4058,43.3104 47.5,46.5 Z"/></g>
<g><path style="opacity:1" fill="#4b555d" d="M 52.5,60.5 C 50.8941,61.3591 49.2275,61.5258 47.5,61C 47.0488,62.9895 47.7155,64.8228 49.5,66.5C 49.6399,68.1238 48.9733,69.2904 47.5,70C 48.056,70.3826 48.3893,70.8826 48.5,71.5C 46.9829,71.6846 45.3162,71.6846 43.5,71.5C 42.5713,72.6888 42.238,74.0222 42.5,75.5C 41.1667,75.5 39.8333,75.5 38.5,75.5C 38.2865,73.8561 38.6198,72.3561 39.5,71C 38.552,70.5172 37.552,70.3505 36.5,70.5C 36.67,69.1779 36.3366,68.0113 35.5,67C 38.5443,66.6411 38.8776,65.9745 36.5,65C 39.8574,62.8775 43.1907,61.0442 46.5,59.5C 48.7536,58.3068 49.4203,56.6402 48.5,54.5C 49.7161,53.9041 51.0494,53.7374 52.5,54C 53.1258,53.2496 53.6258,52.4162 54,51.5C 54.1992,53.4025 55.0325,54.9025 56.5,56C 54.4132,55.7821 52.4132,55.9488 50.5,56.5C 51.8532,57.5237 52.5198,58.857 52.5,60.5 Z"/></g>
<g><path style="opacity:1" fill="#4b555d" d="M 138.5,54.5 C 140.258,54.8769 141.925,55.5435 143.5,56.5C 144.696,56.1543 144.696,55.6543 143.5,55C 149.72,53.9882 150.054,55.1549 144.5,58.5C 144.938,59.5063 145.604,59.5063 146.5,58.5C 147.251,59.376 147.751,60.376 148,61.5C 148.333,61.1667 148.667,60.8333 149,60.5C 149.333,61.5 149.667,62.5 150,63.5C 152.155,61.8328 154.655,60.8328 157.5,60.5C 158.17,58.7086 158.837,57.0419 159.5,55.5C 159.5,56.8333 159.5,58.1667 159.5,59.5C 161.689,59.207 163.689,58.707 165.5,58C 164.929,59.2051 164.262,60.3717 163.5,61.5C 162.833,61.1667 162.167,60.8333 161.5,60.5C 160.269,61.6507 160.269,62.8173 161.5,64C 159.937,64.7589 158.937,65.9256 158.5,67.5C 157.178,67.33 156.011,67.6634 155,68.5C 154.517,67.552 154.351,66.552 154.5,65.5C 158.133,65.557 158.3,64.557 155,62.5C 154.25,63.1258 153.416,63.6258 152.5,64C 153.833,64.6667 153.833,65.3333 152.5,66C 151.552,66.4828 150.552,66.6495 149.5,66.5C 149.337,68.8568 149.503,71.1902 150,73.5C 150.494,71.8659 150.66,70.1992 150.5,68.5C 151.552,68.3505 152.552,68.5172 153.5,69C 154.833,69.6667 154.833,70.3333 153.5,71C 154.793,71.49 156.127,71.6567 157.5,71.5C 159.222,74.6082 158.722,77.2749 156,79.5C 154.731,78.0953 154.231,76.4286 154.5,74.5C 153.448,74.3505 152.448,74.5172 151.5,75C 152.604,76.1313 152.271,76.9646 150.5,77.5C 149.264,76.7542 147.93,76.4208 146.5,76.5C 146.36,78.1238 147.027,79.2904 148.5,80C 147.207,80.49 145.873,80.6567 144.5,80.5C 144.714,78.8561 144.38,77.3561 143.5,76C 144.167,75.6667 144.833,75.3333 145.5,75C 143.152,73.3116 142.985,71.4783 145,69.5C 149.012,72.2295 149.512,71.5628 146.5,67.5C 148.641,65.7473 147.974,64.7473 144.5,64.5C 145.028,63.1526 145.195,61.8193 145,60.5C 143.542,61.7468 142.042,61.7468 140.5,60.5C 139.523,58.5891 138.857,56.5891 138.5,54.5 Z"/></g>
<g><path style="opacity:1" fill="#4c565e" d="M 8.5,51.5 C 8.03008,54.3456 8.86341,56.6789 11,58.5C 11.5585,55.7154 12.8918,53.3821 15,51.5C 15.4236,53.9759 16.2569,56.3093 17.5,58.5C 16.5705,60.6061 15.4038,62.6061 14,64.5C 12.6439,63.6198 11.1439,63.2865 9.5,63.5C 9.40422,59.6893 8.73755,59.6893 7.5,63.5C 6.60433,62.4937 5.93767,62.4937 5.5,63.5C 8.5015,63.8699 10.8348,65.2032 12.5,67.5C 10.8762,67.3601 9.70956,68.0267 9,69.5C 8.76445,67.8807 7.93112,66.8807 6.5,66.5C 4.97432,65.8953 3.97432,64.7286 3.5,63C 2.5,62.6667 1.5,62.3333 0.5,62C 2.87818,61.4888 5.21151,60.8221 7.5,60C 6.83333,59.3333 6.16667,58.6667 5.5,58C 6.25244,57.3292 6.58577,56.4959 6.5,55.5C 6.22911,53.6203 6.89578,52.287 8.5,51.5 Z"/></g>
<g><path style="opacity:1" fill="#4b565d" d="M 81.5,48.5 C 84.5,48.5 87.5,48.5 90.5,48.5C 91.4972,48.4701 92.1639,48.9701 92.5,50C 91.9097,52.1956 91.2431,54.3622 90.5,56.5C 91.1667,57.1667 91.8333,57.8333 92.5,58.5C 90.3208,58.991 88.3208,58.991 86.5,58.5C 88.2038,60.8493 90.5371,61.8493 93.5,61.5C 93.4021,59.4471 94.0687,57.7804 95.5,56.5C 95.3691,57.3764 95.7025,58.0431 96.5,58.5C 98.2972,55.9041 99.6305,56.2374 100.5,59.5C 99.4706,59.2964 98.4706,59.7964 97.5,61C 98.6034,62.6804 98.2701,64.1804 96.5,65.5C 95.7492,64.624 95.2492,63.624 95,62.5C 93.4912,64.9193 91.3245,65.9193 88.5,65.5C 88.7746,60.7797 87.9412,60.4463 86,64.5C 84.0258,64.3528 82.0258,64.0195 80,63.5C 78.98,64.8905 78.1466,66.3905 77.5,68C 76.5509,68.6172 75.7175,68.4506 75,67.5C 74.3123,68.3317 74.479,68.9984 75.5,69.5C 77.1667,70.1667 78.8333,70.8333 80.5,71.5C 80.8987,69.7941 80.8987,68.2941 80.5,67C 81.7659,66.6905 82.9326,66.1905 84,65.5C 84.4643,66.0944 84.631,66.7611 84.5,67.5C 83.596,68.209 83.2627,69.209 83.5,70.5C 83.8258,72.6607 84.8258,74.4941 86.5,76C 85.2567,77.1545 84.2567,78.4878 83.5,80C 84.1667,80.6667 84.8333,80.6667 85.5,80C 86.6711,76.3616 88.0044,76.0283 89.5,79C 90.8333,79.3333 92.1667,79.6667 93.5,80C 92.2625,80.2321 91.2625,80.7321 90.5,81.5C 83.8333,81.5 77.1667,81.5 70.5,81.5C 72.5623,80.1043 74.729,79.771 77,80.5C 77.9454,80.0946 78.6121,79.428 79,78.5C 79.8893,79.8882 80.3893,79.7215 80.5,78C 79.6447,76.5491 79.4781,75.0491 80,73.5C 79.6667,73.8333 79.3333,74.1667 79,74.5C 77.9148,73.7069 76.7481,73.0402 75.5,72.5C 73.4384,74.3603 72.1051,76.6936 71.5,79.5C 70.7221,77.2005 69.7221,75.0338 68.5,73C 72.3591,70.7291 73.3591,67.5624 71.5,63.5C 73.7583,63.2249 74.0916,62.2249 72.5,60.5C 74.0666,58.1039 74.8999,55.4372 75,52.5C 76.2975,51.2164 77.4642,51.3831 78.5,53C 77.3279,53.4186 76.3279,54.0853 75.5,55C 78.2359,57.3398 79.9025,56.8398 80.5,53.5C 79.1527,51.5083 79.486,49.8416 81.5,48.5 Z"/></g>
<g><path style="opacity:1" fill="#4c565e" d="M 120.5,57.5 C 120.5,58.8333 120.5,60.1667 120.5,61.5C 121.833,61.5 123.167,61.5 124.5,61.5C 124.657,62.8734 124.49,64.2068 124,65.5C 122.865,65.727 121.698,66.0604 120.5,66.5C 121.137,68.3031 122.303,69.6364 124,70.5C 124.333,69.8333 124.667,69.1667 125,68.5C 127.3,70.0665 129.8,71.2332 132.5,72C 134.49,73.8402 134.49,75.0069 132.5,75.5C 130.089,73.7275 127.256,72.3942 124,71.5C 122.624,71.6842 121.791,72.3509 121.5,73.5C 120.583,73.5064 120.083,72.5064 120,70.5C 119.397,73.9055 118.231,74.2388 116.5,71.5C 119.229,69.6329 118.896,68.6329 115.5,68.5C 115.649,67.448 115.483,66.448 115,65.5C 114.107,66.7112 113.274,66.7112 112.5,65.5C 111.167,64.5 111.167,63.5 112.5,62.5C 108.768,59.1016 109.268,58.7683 114,61.5C 114.49,60.2068 114.657,58.8734 114.5,57.5C 113.325,57.719 112.325,57.3857 111.5,56.5C 113.5,55.8333 115.5,55.1667 117.5,54.5C 116.185,53.1054 116.519,52.1054 118.5,51.5C 119.169,53.6309 119.835,55.6309 120.5,57.5 Z"/></g>
<g><path style="opacity:1" fill="#4c575e" d="M 120.5,47.5 C 122.117,48.038 123.784,48.3713 125.5,48.5C 123.372,49.2805 123.205,50.2805 125,51.5C 127.064,50.4086 129.231,50.2419 131.5,51C 130.061,51.9906 129.061,53.324 128.5,55C 124.869,55.2063 124.535,56.373 127.5,58.5C 128.524,57.1468 129.857,56.4802 131.5,56.5C 131.172,58.3914 130.505,59.8914 129.5,61C 129.943,62.825 130.277,64.6583 130.5,66.5C 133.604,65.9711 135.937,66.9711 137.5,69.5C 137.167,69.8333 136.833,70.1667 136.5,70.5C 135.833,69.8333 135.167,69.1667 134.5,68.5C 133.479,69.0016 133.312,69.6683 134,70.5C 135.827,72.1544 137.66,72.9877 139.5,73C 136.833,74.6667 136.833,76.3333 139.5,78C 137.603,79.1097 135.77,79.2764 134,78.5C 133.302,79.6906 132.469,80.6906 131.5,81.5C 130.833,81.5 130.167,81.5 129.5,81.5C 129.489,79.9826 128.823,78.8159 127.5,78C 128.91,76.6283 130.577,75.795 132.5,75.5C 134.49,75.0069 134.49,73.8402 132.5,72C 129.8,71.2332 127.3,70.0665 125,68.5C 124.667,69.1667 124.333,69.8333 124,70.5C 122.303,69.6364 121.137,68.3031 120.5,66.5C 121.698,66.0604 122.865,65.727 124,65.5C 124.49,64.2068 124.657,62.8734 124.5,61.5C 123.167,61.5 121.833,61.5 120.5,61.5C 120.5,60.1667 120.5,58.8333 120.5,57.5C 120.332,54.3307 120.332,50.9974 120.5,47.5 Z"/></g>
<g><path style="opacity:1" fill="#4b575d" d="M 131.5,47.5 C 133.222,49.4496 135.388,50.7829 138,51.5C 138.167,51.8333 138.333,52.1667 138.5,52.5C 137.311,53.4287 135.978,53.762 134.5,53.5C 134.148,56.0728 134.648,58.4062 136,60.5C 136.037,58.0261 136.87,56.0261 138.5,54.5C 138.857,56.5891 139.523,58.5891 140.5,60.5C 142.042,61.7468 143.542,61.7468 145,60.5C 145.195,61.8193 145.028,63.1526 144.5,64.5C 144.672,65.4916 144.338,66.1583 143.5,66.5C 142.768,65.1917 141.934,63.8584 141,62.5C 140.261,63.5742 139.261,64.2409 138,64.5C 136.171,63.534 134.338,63.3673 132.5,64C 134.386,61.3986 134.386,58.5653 132.5,55.5C 131.893,55.6236 131.56,55.9569 131.5,56.5C 129.857,56.4802 128.524,57.1468 127.5,58.5C 124.535,56.373 124.869,55.2063 128.5,55C 129.061,53.324 130.061,51.9906 131.5,51C 129.231,50.2419 127.064,50.4086 125,51.5C 123.205,50.2805 123.372,49.2805 125.5,48.5C 127.565,48.4828 129.565,48.1495 131.5,47.5 Z"/></g>
<g><path style="opacity:1" fill="#4c565e" d="M 143.5,66.5 C 142.12,67.1903 140.786,67.5236 139.5,67.5C 142.372,69.9383 142.706,72.4383 140.5,75C 141.484,76.6565 142.484,78.3232 143.5,80C 140.964,80.1862 138.631,80.6862 136.5,81.5C 134.833,81.5 133.167,81.5 131.5,81.5C 132.469,80.6906 133.302,79.6906 134,78.5C 135.77,79.2764 137.603,79.1097 139.5,78C 136.833,76.3333 136.833,74.6667 139.5,73C 137.66,72.9877 135.827,72.1544 134,70.5C 133.312,69.6683 133.479,69.0016 134.5,68.5C 135.167,69.1667 135.833,69.8333 136.5,70.5C 136.833,70.1667 137.167,69.8333 137.5,69.5C 135.937,66.9711 133.604,65.9711 130.5,66.5C 130.277,64.6583 129.943,62.825 129.5,61C 130.505,59.8914 131.172,58.3914 131.5,56.5C 131.56,55.9569 131.893,55.6236 132.5,55.5C 134.386,58.5653 134.386,61.3986 132.5,64C 134.338,63.3673 136.171,63.534 138,64.5C 139.261,64.2409 140.261,63.5742 141,62.5C 141.934,63.8584 142.768,65.1917 143.5,66.5 Z"/></g>
<g><path style="opacity:1" fill="#4b565d" d="M 181.5,61.5 C 181.5,68.1667 181.5,74.8333 181.5,81.5C 177.167,81.5 172.833,81.5 168.5,81.5C 168.937,79.9256 169.937,78.7589 171.5,78C 170.914,75.7202 170.08,73.5535 169,71.5C 168.349,73.235 168.515,74.9017 169.5,76.5C 168.855,77.646 168.022,78.646 167,79.5C 165.667,78.1667 164.333,76.8333 163,75.5C 161.455,76.8213 160.289,76.4879 159.5,74.5C 160.651,73.269 161.817,73.269 163,74.5C 163.333,73.5 163.667,72.5 164,71.5C 165.566,72.0606 166.899,71.3939 168,69.5C 168.333,69.8333 168.667,70.1667 169,70.5C 169.483,69.552 169.649,68.552 169.5,67.5C 171.911,67.1367 173.411,68.1367 174,70.5C 175.039,69.7562 175.539,68.7562 175.5,67.5C 176.5,67.5 177.5,67.5 178.5,67.5C 178.617,65.5165 177.95,63.8498 176.5,62.5C 177.965,60.5764 179.632,60.2431 181.5,61.5 Z"/></g>
<g><path style="opacity:1" fill="#4c565e" d="M 175.5,67.5 C 174.698,66.0484 174.198,64.3817 174,62.5C 172.812,63.5634 172.312,64.8967 172.5,66.5C 170.508,66.3285 168.842,66.9951 167.5,68.5C 166.833,68.1667 166.167,67.8333 165.5,67.5C 163.891,70.8936 161.224,72.2269 157.5,71.5C 156.127,71.6567 154.793,71.49 153.5,71C 154.833,70.3333 154.833,69.6667 153.5,69C 152.552,68.5172 151.552,68.3505 150.5,68.5C 150.66,70.1992 150.494,71.8659 150,73.5C 149.503,71.1902 149.337,68.8568 149.5,66.5C 150.552,66.6495 151.552,66.4828 152.5,66C 153.833,65.3333 153.833,64.6667 152.5,64C 153.416,63.6258 154.25,63.1258 155,62.5C 158.3,64.557 158.133,65.557 154.5,65.5C 154.351,66.552 154.517,67.552 155,68.5C 156.011,67.6634 157.178,67.33 158.5,67.5C 161.266,66.3809 163.932,65.8809 166.5,66C 165.643,65.3109 164.977,64.4776 164.5,63.5C 165.646,62.2813 166.646,60.9479 167.5,59.5C 168.192,60.0253 168.692,60.6919 169,61.5C 170.269,60.0953 170.769,58.4286 170.5,56.5C 173.482,56.0371 176.482,55.7038 179.5,55.5C 179.5,56.8333 179.5,58.1667 179.5,59.5C 177.549,59.7733 176.049,59.1066 175,57.5C 174.463,60.1872 174.963,62.6872 176.5,65C 175.748,65.6708 175.414,66.5041 175.5,67.5 Z"/></g>
<g><path style="opacity:1" fill="#4b555e" d="M 24.5,66.5 C 25.7021,68.945 25.3688,71.2783 23.5,73.5C 24.5,74.8333 25.5,76.1667 26.5,77.5C 26.2907,78.086 25.9574,78.586 25.5,79C 26.7425,79.3114 27.7425,78.8114 28.5,77.5C 29.4287,78.6888 29.762,80.0222 29.5,81.5C 27.8333,81.5 26.1667,81.5 24.5,81.5C 24.6602,79.8008 24.4935,78.1341 24,76.5C 23.3308,79.2674 22.1641,79.7674 20.5,78C 23.0214,75.151 22.3547,72.9843 18.5,71.5C 18.1667,72.1667 17.8333,72.8333 17.5,73.5C 19.4414,75.3159 20.1081,77.3159 19.5,79.5C 18.1667,80.8333 16.8333,80.8333 15.5,79.5C 14.5,78.1667 13.5,76.8333 12.5,75.5C 12.3309,76.3966 11.9976,77.3966 11.5,78.5C 9.14223,77.0006 8.97556,75.3339 11,73.5C 11.3333,73.8333 11.6667,74.1667 12,74.5C 12.6667,73.5 12.6667,72.5 12,71.5C 10.5701,71.6938 9.0701,71.6938 7.5,71.5C 6.54811,69.9547 6.21478,68.288 6.5,66.5C 7.93112,66.8807 8.76445,67.8807 9,69.5C 9.70956,68.0267 10.8762,67.3601 12.5,67.5C 13.3844,70.0232 14.2177,72.6898 15,75.5C 15.7203,73.8876 15.5536,72.3876 14.5,71C 16.1341,70.5065 17.8008,70.3398 19.5,70.5C 20.6462,66.3085 20.6462,62.3085 19.5,58.5C 24.76,56.2192 24.76,55.2192 19.5,55.5C 21.1667,54.5 22.5,53.1667 23.5,51.5C 24.2811,52.7287 24.7811,54.062 25,55.5C 27.7865,52.6553 29.1198,52.9887 29,56.5C 26.3987,55.2738 25.5653,55.9405 26.5,58.5C 25.0451,60.2199 24.2117,62.2199 24,64.5C 22.4443,65.5196 21.2776,66.853 20.5,68.5C 20.8333,69.1667 21.1667,69.8333 21.5,70.5C 22.1497,68.8164 23.1497,67.4831 24.5,66.5 Z"/></g>
<g><path style="opacity:1" fill="#4b555d" d="M 99.5,70.5 C 100.29,71.4013 101.29,72.0679 102.5,72.5C 103.398,74.6269 105.064,75.7935 107.5,76C 105.606,77.0793 105.273,78.4126 106.5,80C 108.708,80.1909 110.708,80.6909 112.5,81.5C 109.5,81.5 106.5,81.5 103.5,81.5C 104.5,76.5 102.5,74.5 97.5,75.5C 97.7381,79.0993 96.7381,79.4327 94.5,76.5C 95.8233,71.9115 95.3233,71.5782 93,75.5C 91.9887,74.6634 90.8221,74.33 89.5,74.5C 89.8808,72.0582 89.2141,71.3915 87.5,72.5C 86.1401,71.8201 84.8068,71.1534 83.5,70.5C 83.2627,69.209 83.596,68.209 84.5,67.5C 85.7358,69.0428 87.4024,70.0428 89.5,70.5C 89.1255,69.229 89.7922,68.0623 91.5,67C 94.2272,66.1816 96.8938,66.3483 99.5,67.5C 98.1117,70.0789 96.6117,70.0789 95,67.5C 92.8735,68.3972 92.3735,69.7305 93.5,71.5C 94.1924,70.9747 94.6924,70.3081 95,69.5C 96.2259,71.5477 97.7259,71.881 99.5,70.5 Z"/></g>
<g><path style="opacity:1" fill="#4b555d" d="M 48.5,71.5 C 50.433,71.7286 52.0997,72.5619 53.5,74C 50.6287,74.1177 47.962,74.7844 45.5,76C 46.3079,77.7058 47.6412,78.5391 49.5,78.5C 49.5,77.5 49.5,76.5 49.5,75.5C 51.1992,75.3398 52.8659,75.5065 54.5,76C 55.731,77.1827 55.731,78.3493 54.5,79.5C 52.6552,78.6054 51.3218,79.2721 50.5,81.5C 44.1667,81.5 37.8333,81.5 31.5,81.5C 31.67,80.1779 31.3366,79.0113 30.5,78C 31.5,77.6667 32.5,77.3333 33.5,77C 33.1667,76.6667 32.8333,76.3333 32.5,76C 36.4149,76.0801 40.0815,77.2468 43.5,79.5C 43.8333,79.1667 44.1667,78.8333 44.5,78.5C 43.8075,77.4822 43.1408,76.4822 42.5,75.5C 42.238,74.0222 42.5713,72.6888 43.5,71.5C 45.3162,71.6846 46.9829,71.6846 48.5,71.5 Z"/></g>
<g><path style="opacity:1" fill="#4b575d" d="M 63.5,71.5 C 62.5449,73.7099 61.0449,74.0432 59,72.5C 58.502,75.4816 58.3354,78.4816 58.5,81.5C 55.8333,81.5 53.1667,81.5 50.5,81.5C 51.3218,79.2721 52.6552,78.6054 54.5,79.5C 55.731,78.3493 55.731,77.1827 54.5,76C 52.8659,75.5065 51.1992,75.3398 49.5,75.5C 49.5,76.5 49.5,77.5 49.5,78.5C 47.6412,78.5391 46.3079,77.7058 45.5,76C 47.962,74.7844 50.6287,74.1177 53.5,74C 52.0997,72.5619 50.433,71.7286 48.5,71.5C 48.3893,70.8826 48.056,70.3826 47.5,70C 48.9733,69.2904 49.6399,68.1238 49.5,66.5C 50.5832,66.5394 51.5832,66.8728 52.5,67.5C 52.9976,66.3966 53.3309,65.3966 53.5,64.5C 54.1527,68.2348 54.9861,71.9015 56,75.5C 56.7203,73.8876 56.5536,72.3876 55.5,71C 57.9442,70.1964 59.7775,68.6964 61,66.5C 61.5,67 62,67.5 62.5,68C 61.015,69.7565 61.3484,70.9232 63.5,71.5 Z"/></g>
<g><path style="opacity:1" fill="#4c575e" d="M -0.5,55.5 C 1.96864,56.0671 4.30198,56.0671 6.5,55.5C 6.58577,56.4959 6.25244,57.3292 5.5,58C 6.16667,58.6667 6.83333,59.3333 7.5,60C 5.21151,60.8221 2.87818,61.4888 0.5,62C 1.5,62.3333 2.5,62.6667 3.5,63C 3.97432,64.7286 4.97432,65.8953 6.5,66.5C 6.21478,68.288 6.54811,69.9547 7.5,71.5C 9.0701,71.6938 10.5701,71.6938 12,71.5C 12.6667,72.5 12.6667,73.5 12,74.5C 11.6667,74.1667 11.3333,73.8333 11,73.5C 8.97556,75.3339 9.14223,77.0006 11.5,78.5C 11.9976,77.3966 12.3309,76.3966 12.5,75.5C 13.5,76.8333 14.5,78.1667 15.5,79.5C 16.8333,80.8333 18.1667,80.8333 19.5,79.5C 20.1081,77.3159 19.4414,75.3159 17.5,73.5C 17.8333,72.8333 18.1667,72.1667 18.5,71.5C 22.3547,72.9843 23.0214,75.151 20.5,78C 22.1641,79.7674 23.3308,79.2674 24,76.5C 24.4935,78.1341 24.6602,79.8008 24.5,81.5C 16.1667,81.5 7.83333,81.5 -0.5,81.5C -0.5,72.8333 -0.5,64.1667 -0.5,55.5 Z"/></g>
<g><path style="opacity:1" fill="#4d585e" d="M 175.5,67.5 C 175.539,68.7562 175.039,69.7562 174,70.5C 173.411,68.1367 171.911,67.1367 169.5,67.5C 169.649,68.552 169.483,69.552 169,70.5C 168.667,70.1667 168.333,69.8333 168,69.5C 166.899,71.3939 165.566,72.0606 164,71.5C 163.667,72.5 163.333,73.5 163,74.5C 161.817,73.269 160.651,73.269 159.5,74.5C 160.289,76.4879 161.455,76.8213 163,75.5C 164.333,76.8333 165.667,78.1667 167,79.5C 168.022,78.646 168.855,77.646 169.5,76.5C 168.515,74.9017 168.349,73.235 169,71.5C 170.08,73.5535 170.914,75.7202 171.5,78C 169.937,78.7589 168.937,79.9256 168.5,81.5C 157.833,81.5 147.167,81.5 136.5,81.5C 138.631,80.6862 140.964,80.1862 143.5,80C 142.484,78.3232 141.484,76.6565 140.5,75C 142.706,72.4383 142.372,69.9383 139.5,67.5C 140.786,67.5236 142.12,67.1903 143.5,66.5C 144.338,66.1583 144.672,65.4916 144.5,64.5C 147.974,64.7473 148.641,65.7473 146.5,67.5C 149.512,71.5628 149.012,72.2295 145,69.5C 142.985,71.4783 143.152,73.3116 145.5,75C 144.833,75.3333 144.167,75.6667 143.5,76C 144.38,77.3561 144.714,78.8561 144.5,80.5C 145.873,80.6567 147.207,80.49 148.5,80C 147.027,79.2904 146.36,78.1238 146.5,76.5C 147.93,76.4208 149.264,76.7542 150.5,77.5C 152.271,76.9646 152.604,76.1313 151.5,75C 152.448,74.5172 153.448,74.3505 154.5,74.5C 154.231,76.4286 154.731,78.0953 156,79.5C 158.722,77.2749 159.222,74.6082 157.5,71.5C 161.224,72.2269 163.891,70.8936 165.5,67.5C 166.167,67.8333 166.833,68.1667 167.5,68.5C 168.842,66.9951 170.508,66.3285 172.5,66.5C 172.312,64.8967 172.812,63.5634 174,62.5C 174.198,64.3817 174.698,66.0484 175.5,67.5 Z"/></g>
<g><path style="opacity:1" fill="#4c575e" d="M 71.5,63.5 C 73.3591,67.5624 72.3591,70.7291 68.5,73C 69.7221,75.0338 70.7221,77.2005 71.5,79.5C 72.1051,76.6936 73.4384,74.3603 75.5,72.5C 76.7481,73.0402 77.9148,73.7069 79,74.5C 79.3333,74.1667 79.6667,73.8333 80,73.5C 79.4781,75.0491 79.6447,76.5491 80.5,78C 80.3893,79.7215 79.8893,79.8882 79,78.5C 78.6121,79.428 77.9454,80.0946 77,80.5C 74.729,79.771 72.5623,80.1043 70.5,81.5C 66.5,81.5 62.5,81.5 58.5,81.5C 58.3354,78.4816 58.502,75.4816 59,72.5C 61.0449,74.0432 62.5449,73.7099 63.5,71.5C 63.846,68.3979 63.1793,65.5645 61.5,63C 64.0387,60.0592 65.372,60.2259 65.5,63.5C 67.7033,63.0651 69.7033,63.0651 71.5,63.5 Z"/></g>
<g><path style="opacity:1" fill="#4c575e" d="M 83.5,70.5 C 84.8068,71.1534 86.1401,71.8201 87.5,72.5C 89.2141,71.3915 89.8808,72.0582 89.5,74.5C 90.8221,74.33 91.9887,74.6634 93,75.5C 95.3233,71.5782 95.8233,71.9115 94.5,76.5C 96.7381,79.4327 97.7381,79.0993 97.5,75.5C 102.5,74.5 104.5,76.5 103.5,81.5C 99.1667,81.5 94.8333,81.5 90.5,81.5C 91.2625,80.7321 92.2625,80.2321 93.5,80C 92.1667,79.6667 90.8333,79.3333 89.5,79C 88.0044,76.0283 86.6711,76.3616 85.5,80C 84.8333,80.6667 84.1667,80.6667 83.5,80C 84.2567,78.4878 85.2567,77.1545 86.5,76C 84.8258,74.4941 83.8258,72.6607 83.5,70.5 Z"/></g>
<g><path style="opacity:1" fill="#4b565d" d="M 104.5,69.5 C 107.69,69.8901 110.357,71.2235 112.5,73.5C 113.167,73.1667 113.833,72.8333 114.5,72.5C 111.869,70.9954 112.203,70.3287 115.5,70.5C 115.739,72.4672 115.406,74.3005 114.5,76C 115.579,76.956 116.745,77.7894 118,78.5C 119.935,76.8978 122.101,75.7311 124.5,75C 123.756,73.9614 122.756,73.4614 121.5,73.5C 121.791,72.3509 122.624,71.6842 124,71.5C 127.256,72.3942 130.089,73.7275 132.5,75.5C 130.577,75.795 128.91,76.6283 127.5,78C 128.823,78.8159 129.489,79.9826 129.5,81.5C 123.833,81.5 118.167,81.5 112.5,81.5C 110.708,80.6909 108.708,80.1909 106.5,80C 105.273,78.4126 105.606,77.0793 107.5,76C 105.064,75.7935 103.398,74.6269 102.5,72.5C 103.551,71.7777 104.218,70.7777 104.5,69.5 Z"/></g>
</svg>
