<?xml version="1.0" encoding="UTF-8"?>
<!DOCTYPE svg PUBLIC "-//W3C//DTD SVG 1.1//EN" "http://www.w3.org/Graphics/SVG/1.1/DTD/svg11.dtd">
<svg xmlns="http://www.w3.org/2000/svg" version="1.1" width="500px" height="500px" style="shape-rendering:geometricPrecision; text-rendering:geometricPrecision; image-rendering:optimizeQuality; fill-rule:evenodd; clip-rule:evenodd" xmlns:xlink="http://www.w3.org/1999/xlink">
<g><path style="opacity:1" fill="#0a192f" d="M -0.5,-0.5 C 166.167,-0.5 332.833,-0.5 499.5,-0.5C 499.5,166.167 499.5,332.833 499.5,499.5C 332.833,499.5 166.167,499.5 -0.5,499.5C -0.5,332.833 -0.5,166.167 -0.5,-0.5 Z"/></g>
<g><path style="opacity:1" fill="#46708a" d="M 135.5,235.5 C 140.975,234.511 146.642,234.178 152.5,234.5C 152.768,236.099 152.434,237.432 151.5,238.5C 151.5,237.5 151.5,236.5 151.5,235.5C 146.167,235.5 140.833,235.5 135.5,235.5 Z"/></g>
<g><path style="opacity:1" fill="#46708a" d="M 381.5,235.5 C 386.975,234.511 392.642,234.178 398.5,234.5C 398.768,236.099 398.434,237.432 397.5,238.5C 397.5,237.5 397.5,236.5 397.5,235.5C 392.167,235.5 386.833,235.5 381.5,235.5 Z"/></g>
<g><path style="opacity:1" fill="#7fc3df" d="M 65.5,235.5 C 66.5,235.5 67.5,235.5 68.5,235.5C 68.1718,240.875 68.5052,246.208 69.5,251.5C 70.1067,251.376 70.44,251.043 70.5,250.5C 74.2552,245.24 78.5886,240.406 83.5,236C 84.8333,235.333 86.1667,235.333 87.5,236C 83.7697,240.059 80.4363,244.392 77.5,249C 81.1513,254.656 84.818,260.323 88.5,266C 86.8333,266.667 85.1667,266.667 83.5,266C 80.209,261.252 77.0423,256.419 74,251.5C 69.9041,255.609 68.4041,260.609 69.5,266.5C 68.1667,266.5 66.8333,266.5 65.5,266.5C 65.5,256.167 65.5,245.833 65.5,235.5 Z"/></g>
<g><path style="opacity:1" fill="#5586a0" d="M 65.5,235.5 C 66.5676,234.566 67.901,234.232 69.5,234.5C 69.1786,240.026 69.5119,245.36 70.5,250.5C 70.44,251.043 70.1067,251.376 69.5,251.5C 68.5052,246.208 68.1718,240.875 68.5,235.5C 67.5,235.5 66.5,235.5 65.5,235.5 Z"/></g>
<g><path style="opacity:1" fill="#82c7e4" d="M 97.5,235.5 C 98.5,235.5 99.5,235.5 100.5,235.5C 100.174,244.017 100.507,252.35 101.5,260.5C 101.611,261.117 101.944,261.617 102.5,262C 106.833,262.667 111.167,262.667 115.5,262C 116.056,261.617 116.389,261.117 116.5,260.5C 117.493,252.35 117.826,244.017 117.5,235.5C 118.5,235.5 119.5,235.5 120.5,235.5C 120.666,244.506 120.5,253.506 120,262.5C 117.036,265.993 113.203,267.326 108.5,266.5C 105.833,266.333 103.167,266.167 100.5,266C 99.6667,265.167 98.8333,264.333 98,263.5C 97.5002,254.173 97.3335,244.839 97.5,235.5 Z"/></g>
<g><path style="opacity:1" fill="#4c7892" d="M 97.5,235.5 C 98.5676,234.566 99.901,234.232 101.5,234.5C 101.5,243.167 101.5,251.833 101.5,260.5C 100.507,252.35 100.174,244.017 100.5,235.5C 99.5,235.5 98.5,235.5 97.5,235.5 Z"/></g>
<g><path style="opacity:1" fill="#4e7b95" d="M 120.5,235.5 C 119.5,235.5 118.5,235.5 117.5,235.5C 117.826,244.017 117.493,252.35 116.5,260.5C 116.5,251.833 116.5,243.167 116.5,234.5C 118.099,234.232 119.432,234.566 120.5,235.5 Z"/></g>
<g><path style="opacity:1" fill="#81c5e2" d="M 135.5,235.5 C 140.833,235.5 146.167,235.5 151.5,235.5C 151.5,236.5 151.5,237.5 151.5,238.5C 146.489,238.334 141.489,238.501 136.5,239C 133.833,242 133.833,245 136.5,248C 140.833,248.333 145.167,248.667 149.5,249C 153.367,252.66 154.534,257.16 153,262.5C 151.833,263.667 150.667,264.833 149.5,266C 143.843,266.499 138.176,266.666 132.5,266.5C 132.5,265.5 132.5,264.5 132.5,263.5C 137.695,263.821 142.695,263.487 147.5,262.5C 148.117,262.389 148.617,262.056 149,261.5C 149.777,258.571 149.61,255.737 148.5,253C 144.167,252.667 139.833,252.333 135.5,252C 128.85,246.376 128.85,240.876 135.5,235.5 Z"/></g>
<g><path style="opacity:1" fill="#82c7e3" d="M 168.5,247.5 C 173.64,248.488 178.974,248.821 184.5,248.5C 184.5,244.167 184.5,239.833 184.5,235.5C 185.5,235.5 186.5,235.5 187.5,235.5C 187.5,245.833 187.5,256.167 187.5,266.5C 186.167,266.5 184.833,266.5 183.5,266.5C 183.5,261.5 183.5,256.5 183.5,251.5C 178.5,251.5 173.5,251.5 168.5,251.5C 168.5,256.5 168.5,261.5 168.5,266.5C 167.167,266.5 165.833,266.5 164.5,266.5C 164.5,255.833 164.5,245.167 164.5,234.5C 165.833,234.5 167.167,234.5 168.5,234.5C 168.5,238.833 168.5,243.167 168.5,247.5 Z"/></g>
<g><path style="opacity:1" fill="#48728c" d="M 187.5,235.5 C 186.5,235.5 185.5,235.5 184.5,235.5C 184.5,239.833 184.5,244.167 184.5,248.5C 178.974,248.821 173.64,248.488 168.5,247.5C 173.5,247.5 178.5,247.5 183.5,247.5C 183.5,243.167 183.5,238.833 183.5,234.5C 185.099,234.232 186.432,234.566 187.5,235.5 Z"/></g>
<g><path style="opacity:1" fill="#7dc0dc" d="M 206.5,235.5 C 208.924,235.192 211.257,235.526 213.5,236.5C 217.043,246.461 220.376,256.461 223.5,266.5C 222.022,266.762 220.689,266.429 219.5,265.5C 218.423,263.271 217.756,260.937 217.5,258.5C 212.5,258.5 207.5,258.5 202.5,258.5C 202.244,260.937 201.577,263.271 200.5,265.5C 199.311,266.429 197.978,266.762 196.5,266.5C 199.546,256.074 202.88,245.741 206.5,235.5 Z"/></g>
<g><path style="opacity:1" fill="#86cdea" d="M 232.5,235.5 C 233.5,235.5 234.5,235.5 235.5,235.5C 235.173,244.682 235.507,253.682 236.5,262.5C 241.305,263.487 246.305,263.821 251.5,263.5C 251.5,264.5 251.5,265.5 251.5,266.5C 245.167,266.5 238.833,266.5 232.5,266.5C 232.5,256.167 232.5,245.833 232.5,235.5 Z"/></g>
<g><path style="opacity:1" fill="#5687a1" d="M 232.5,235.5 C 233.568,234.566 234.901,234.232 236.5,234.5C 236.5,243.833 236.5,253.167 236.5,262.5C 235.507,253.682 235.173,244.682 235.5,235.5C 234.5,235.5 233.5,235.5 232.5,235.5 Z"/></g>
<g><path style="opacity:1" fill="#7cbfdb" d="M 286.5,250.5 C 289.833,250.5 293.167,250.5 296.5,250.5C 296.5,255.833 296.5,261.167 296.5,266.5C 294.857,266.52 293.524,265.853 292.5,264.5C 287.755,266.547 282.755,267.047 277.5,266C 276.333,264.833 275.167,263.667 274,262.5C 273.333,254.5 273.333,246.5 274,238.5C 275.167,237.333 276.333,236.167 277.5,235C 282.864,234.171 288.198,234.337 293.5,235.5C 294.5,236.833 295.5,238.167 296.5,239.5C 294.8,242.027 293.133,241.86 291.5,239C 287.5,238.333 283.5,238.333 279.5,239C 279,239.5 278.5,240 278,240.5C 277.333,247.5 277.333,254.5 278,261.5C 282.079,262.629 286.245,262.796 290.5,262C 293.125,259.804 294.125,256.97 293.5,253.5C 291.167,253.5 288.833,253.5 286.5,253.5C 286.5,252.5 286.5,251.5 286.5,250.5 Z"/></g>
<g><path style="opacity:1" fill="#507e98" d="M 312.5,235.5 C 311.5,235.5 310.5,235.5 309.5,235.5C 309.5,245.833 309.5,256.167 309.5,266.5C 308.506,256.013 308.172,245.346 308.5,234.5C 310.099,234.232 311.432,234.566 312.5,235.5 Z"/></g>
<g><path style="opacity:1" fill="#87ceea" d="M 312.5,235.5 C 312.5,239.833 312.5,244.167 312.5,248.5C 318.026,248.821 323.36,248.488 328.5,247.5C 328.5,243.5 328.5,239.5 328.5,235.5C 329.5,235.5 330.5,235.5 331.5,235.5C 331.5,245.833 331.5,256.167 331.5,266.5C 330.5,266.5 329.5,266.5 328.5,266.5C 328.5,261.5 328.5,256.5 328.5,251.5C 323.167,251.5 317.833,251.5 312.5,251.5C 312.5,256.5 312.5,261.5 312.5,266.5C 311.5,266.5 310.5,266.5 309.5,266.5C 309.5,256.167 309.5,245.833 309.5,235.5C 310.5,235.5 311.5,235.5 312.5,235.5 Z"/></g>
<g><path style="opacity:1" fill="#6ca7c2" d="M 328.5,235.5 C 329.568,234.566 330.901,234.232 332.5,234.5C 332.828,245.346 332.494,256.013 331.5,266.5C 331.5,256.167 331.5,245.833 331.5,235.5C 330.5,235.5 329.5,235.5 328.5,235.5 Z"/></g>
<g><path style="opacity:1" fill="#76b6d2" d="M 347.5,234.5 C 352.511,234.334 357.511,234.501 362.5,235C 364,236.5 365.5,238 367,239.5C 367.667,247.167 367.667,254.833 367,262.5C 365.833,263.667 364.667,264.833 363.5,266C 358.167,266.667 352.833,266.667 347.5,266C 346.333,264.833 345.167,263.667 344,262.5C 343.333,254.5 343.333,246.5 344,238.5C 345.376,237.295 346.542,235.962 347.5,234.5 Z"/></g>
<g><path style="opacity:1" fill="#81c5e2" d="M 381.5,235.5 C 386.833,235.5 392.167,235.5 397.5,235.5C 397.5,236.5 397.5,237.5 397.5,238.5C 392.489,238.334 387.489,238.501 382.5,239C 379.833,242 379.833,245 382.5,248C 386.833,248.333 391.167,248.667 395.5,249C 399.367,252.66 400.534,257.16 399,262.5C 397.833,263.667 396.667,264.833 395.5,266C 389.843,266.499 384.176,266.666 378.5,266.5C 378.5,265.5 378.5,264.5 378.5,263.5C 383.695,263.821 388.695,263.487 393.5,262.5C 394.117,262.389 394.617,262.056 395,261.5C 395.777,258.571 395.61,255.737 394.5,253C 390.167,252.667 385.833,252.333 381.5,252C 374.85,246.376 374.85,240.876 381.5,235.5 Z"/></g>
<g><path style="opacity:1" fill="#82c7e3" d="M 414.5,247.5 C 419.64,248.488 424.974,248.821 430.5,248.5C 430.5,244.167 430.5,239.833 430.5,235.5C 431.5,235.5 432.5,235.5 433.5,235.5C 433.5,245.833 433.5,256.167 433.5,266.5C 432.167,266.5 430.833,266.5 429.5,266.5C 429.5,261.5 429.5,256.5 429.5,251.5C 424.5,251.5 419.5,251.5 414.5,251.5C 414.5,256.5 414.5,261.5 414.5,266.5C 413.167,266.5 411.833,266.5 410.5,266.5C 410.5,255.833 410.5,245.167 410.5,234.5C 411.833,234.5 413.167,234.5 414.5,234.5C 414.5,238.833 414.5,243.167 414.5,247.5 Z"/></g>
<g><path style="opacity:1" fill="#48728c" d="M 433.5,235.5 C 432.5,235.5 431.5,235.5 430.5,235.5C 430.5,239.833 430.5,244.167 430.5,248.5C 424.974,248.821 419.64,248.488 414.5,247.5C 419.5,247.5 424.5,247.5 429.5,247.5C 429.5,243.167 429.5,238.833 429.5,234.5C 431.099,234.232 432.432,234.566 433.5,235.5 Z"/></g>
<g><path style="opacity:1" fill="#0f2036" d="M 209.5,238.5 C 211.865,243.241 213.865,248.241 215.5,253.5C 211.833,254.833 208.167,254.833 204.5,253.5C 206.326,248.519 207.993,243.519 209.5,238.5 Z"/></g>
<g><path style="opacity:1" fill="#0a192f" d="M 348.5,238.5 C 353.099,238.2 357.599,238.533 362,239.5C 362.813,247.08 362.647,254.58 361.5,262C 356.913,262.799 352.413,262.632 348,261.5C 347.202,253.754 347.369,246.087 348.5,238.5 Z"/></g>
<g><path style="opacity:1" fill="#32536c" d="M 312.5,235.5 C 313.483,239.298 313.817,243.298 313.5,247.5C 318.5,247.5 323.5,247.5 328.5,247.5C 323.36,248.488 318.026,248.821 312.5,248.5C 312.5,244.167 312.5,239.833 312.5,235.5 Z"/></g>
<g><path style="opacity:1" fill="#5b8ea8" d="M 286.5,250.5 C 289.962,249.518 293.629,249.185 297.5,249.5C 297.822,255.358 297.489,261.025 296.5,266.5C 296.5,261.167 296.5,255.833 296.5,250.5C 293.167,250.5 289.833,250.5 286.5,250.5 Z"/></g>
<g><path style="opacity:1" fill="#254057" d="M 328.5,266.5 C 327.514,262.03 327.181,257.363 327.5,252.5C 322.833,252.5 318.167,252.5 313.5,252.5C 313.819,257.363 313.486,262.03 312.5,266.5C 312.5,261.5 312.5,256.5 312.5,251.5C 317.833,251.5 323.167,251.5 328.5,251.5C 328.5,256.5 328.5,261.5 328.5,266.5 Z"/></g>
<g><path style="opacity:1" fill="#54859f" d="M 147.5,262.5 C 142.695,263.487 137.695,263.821 132.5,263.5C 132.5,264.5 132.5,265.5 132.5,266.5C 131.566,265.432 131.232,264.099 131.5,262.5C 136.833,262.5 142.167,262.5 147.5,262.5 Z"/></g>
<g><path style="opacity:1" fill="#52829c" d="M 236.5,262.5 C 241.833,262.5 247.167,262.5 252.5,262.5C 252.768,264.099 252.434,265.432 251.5,266.5C 251.5,265.5 251.5,264.5 251.5,263.5C 246.305,263.821 241.305,263.487 236.5,262.5 Z"/></g>
<g><path style="opacity:1" fill="#54859f" d="M 393.5,262.5 C 388.695,263.487 383.695,263.821 378.5,263.5C 378.5,264.5 378.5,265.5 378.5,266.5C 377.566,265.432 377.232,264.099 377.5,262.5C 382.833,262.5 388.167,262.5 393.5,262.5 Z"/></g>
</svg>
