<?xml version="1.0" standalone="no"?>
<!DOCTYPE svg PUBLIC "-//W3C//DTD SVG 20010904//EN"
 "http://www.w3.org/TR/2001/REC-SVG-20010904/DTD/svg10.dtd">
<svg version="1.0" xmlns="http://www.w3.org/2000/svg"
 width="500.000000pt" height="500.000000pt" viewBox="0 0 500.000000 500.000000"
 preserveAspectRatio="xMidYMid meet">

<g transform="translate(0.000000,500.000000) scale(0.100000,-0.100000)"
fill="#000000" stroke="none">
<path d="M0 2500 l0 -2500 2500 0 2500 0 0 2500 0 2500 -2500 0 -2500 0 0
-2500z m3773 997 c31 -13 37 -21 37 -45 0 -38 -8 -44 -34 -27 -27 19 -103 19
-205 0 -267 -51 -490 -172 -941 -510 -124 -93 -273 -203 -332 -245 l-106 -77
39 -73 c67 -124 160 -250 257 -352 136 -141 250 -208 357 -208 65 0 98 24 93
67 -3 24 -10 28 -75 44 -132 33 -213 90 -260 187 -24 49 -28 69 -27 142 1 175
86 334 276 516 336 322 902 495 1163 356 55 -30 69 -42 94 -82 28 -46 27 -95
-5 -158 -33 -66 -97 -123 -193 -170 -70 -35 -81 -37 -167 -37 -85 0 -95 2
-119 25 -39 36 -56 82 -56 157 -1 68 9 90 35 80 13 -5 16 -22 16 -77 0 -115
31 -150 134 -150 103 0 229 63 293 146 40 53 40 120 -1 163 -111 116 -423 101
-713 -34 -277 -130 -540 -379 -625 -593 -17 -44 -22 -78 -23 -148 0 -84 2 -94
30 -140 36 -58 106 -108 183 -130 84 -25 262 -15 367 20 175 59 422 202 550
319 33 30 80 82 103 116 l43 61 -33 0 c-39 0 -325 -25 -489 -41 -127 -13 -149
-10 -149 21 0 26 58 54 158 77 135 31 863 28 915 -4 21 -13 -31 -25 -155 -36
l-131 -12 -53 -70 c-79 -107 -175 -256 -324 -504 -74 -124 -141 -226 -147
-229 -20 -6 -16 60 8 115 11 26 59 122 107 213 48 91 89 169 91 173 2 5 -34
-17 -80 -48 -193 -131 -474 -235 -634 -235 -42 0 -45 -2 -45 -27 0 -76 -80
-133 -195 -141 -121 -7 -218 42 -359 184 -111 110 -188 216 -262 360 -31 60
-58 110 -59 112 -2 2 -21 -6 -43 -17 -21 -11 -59 -25 -83 -31 -36 -9 -54 -23
-94 -72 -83 -100 -246 -251 -339 -313 -146 -96 -253 -131 -386 -123 -194 12
-288 119 -278 318 6 119 43 197 143 297 114 114 250 170 396 161 59 -3 72 -8
99 -33 31 -30 50 -89 32 -107 -6 -6 -19 5 -39 34 -39 58 -84 74 -171 60 -142
-23 -268 -125 -343 -277 -42 -84 -44 -93 -44 -174 0 -68 4 -93 20 -120 30 -52
83 -89 153 -106 56 -15 68 -15 122 -1 154 40 328 165 506 365 l92 104 -19 36
c-41 76 -14 191 59 251 38 31 118 54 157 44 19 -5 28 1 48 33 66 105 247 473
247 503 0 20 -33 8 -172 -62 -131 -66 -151 -80 -235 -163 -83 -81 -93 -96 -93
-127 0 -31 5 -38 34 -52 19 -9 48 -16 65 -16 40 0 40 -16 0 -24 -58 -11 -127
-7 -143 10 -41 40 4 133 115 239 57 54 102 84 195 133 134 68 242 112 278 112
37 0 46 -19 35 -72 -12 -54 -135 -308 -237 -487 l-71 -125 19 -49 c11 -27 21
-52 24 -55 3 -2 70 44 148 104 718 548 793 602 933 672 95 47 188 79 270 91
81 13 202 7 248 -12z"/>
<path d="M1942 2737 c-12 -13 -25 -37 -28 -55 -7 -33 1 -82 14 -82 6 0 50 60
97 133 l17 27 -39 0 c-28 0 -46 -7 -61 -23z"/>
<path d="M2050 2616 c-17 -26 -30 -50 -27 -52 2 -3 23 3 46 12 35 14 41 20 35
38 -15 50 -20 50 -54 2z"/>
</g>
</svg>
