<?xml version="1.0" encoding="UTF-8"?>
<!DOCTYPE svg PUBLIC "-//W3C//DTD SVG 1.1//EN" "http://www.w3.org/Graphics/SVG/1.1/DTD/svg11.dtd">
<svg xmlns="http://www.w3.org/2000/svg" version="1.1" width="500px" height="500px" style="shape-rendering:geometricPrecision; text-rendering:geometricPrecision; image-rendering:optimizeQuality; fill-rule:evenodd; clip-rule:evenodd" xmlns:xlink="http://www.w3.org/1999/xlink">
<g><path style="opacity:1" fill="#0a192f" d="M -0.5,-0.5 C 166.167,-0.5 332.833,-0.5 499.5,-0.5C 499.5,166.167 499.5,332.833 499.5,499.5C 332.833,499.5 166.167,499.5 -0.5,499.5C -0.5,332.833 -0.5,166.167 -0.5,-0.5 Z"/></g>
<g><path style="opacity:1" fill="#436c86" d="M 167.5,236.5 C 171.298,235.517 175.298,235.183 179.5,235.5C 179.802,238.059 179.468,240.393 178.5,242.5C 178.5,240.5 178.5,238.5 178.5,236.5C 174.833,236.5 171.167,236.5 167.5,236.5 Z"/></g>
<g><path style="opacity:1" fill="#84cae7" d="M 114.5,236.5 C 116.833,236.5 119.167,236.5 121.5,236.5C 121.5,240.167 121.5,243.833 121.5,247.5C 122.791,247.737 123.791,247.404 124.5,246.5C 125.479,243.375 125.813,240.042 125.5,236.5C 127.833,236.5 130.167,236.5 132.5,236.5C 132.5,239.833 132.5,243.167 132.5,246.5C 132.426,248.411 131.426,249.578 129.5,250C 130.416,250.374 131.25,250.874 132,251.5C 132.2,255.753 132.7,259.92 133.5,264C 130.854,264.497 128.187,264.664 125.5,264.5C 125.665,261.15 125.498,257.817 125,254.5C 124.586,254.043 124.086,253.709 123.5,253.5C 122.511,257.107 122.177,260.774 122.5,264.5C 119.833,264.5 117.167,264.5 114.5,264.5C 114.5,255.167 114.5,245.833 114.5,236.5 Z"/></g>
<g><path style="opacity:1" fill="#4b7791" d="M 114.5,236.5 C 116.948,235.527 119.615,235.194 122.5,235.5C 121.92,239.649 122.586,243.316 124.5,246.5C 123.791,247.404 122.791,247.737 121.5,247.5C 121.5,243.833 121.5,240.167 121.5,236.5C 119.167,236.5 116.833,236.5 114.5,236.5 Z"/></g>
<g><path style="opacity:1" fill="#588ba6" d="M 147.5,236.5 C 145.167,236.5 142.833,236.5 140.5,236.5C 140.5,244.833 140.5,253.167 140.5,261.5C 139.507,253.016 139.174,244.349 139.5,235.5C 142.385,235.194 145.052,235.527 147.5,236.5 Z"/></g>
<g><path style="opacity:1" fill="#86cce9" d="M 147.5,236.5 C 147.334,243.508 147.5,250.508 148,257.5C 149.461,258.883 150.294,258.549 150.5,256.5C 151.491,250.021 151.824,243.354 151.5,236.5C 153.5,236.5 155.5,236.5 157.5,236.5C 157.5,245.167 157.5,253.833 157.5,262.5C 157.389,263.117 157.056,263.617 156.5,264C 151.5,264.667 146.5,264.667 141.5,264C 140.748,263.329 140.414,262.496 140.5,261.5C 140.5,253.167 140.5,244.833 140.5,236.5C 142.833,236.5 145.167,236.5 147.5,236.5 Z"/></g>
<g><path style="opacity:1" fill="#6da9c4" d="M 157.5,262.5 C 157.5,253.833 157.5,245.167 157.5,236.5C 155.5,236.5 153.5,236.5 151.5,236.5C 151.824,243.354 151.491,250.021 150.5,256.5C 150.5,249.5 150.5,242.5 150.5,235.5C 153.167,235.5 155.833,235.5 158.5,235.5C 158.827,244.682 158.493,253.682 157.5,262.5 Z"/></g>
<g><path style="opacity:1" fill="#82c7e4" d="M 167.5,236.5 C 171.167,236.5 174.833,236.5 178.5,236.5C 178.5,238.5 178.5,240.5 178.5,242.5C 176.5,242.5 174.5,242.5 172.5,242.5C 172.5,244.167 172.5,245.833 172.5,247.5C 175.044,247.104 177.211,247.771 179,249.5C 179.667,253.833 179.667,258.167 179,262.5C 178.5,263 178,263.5 177.5,264C 173.179,264.499 168.846,264.666 164.5,264.5C 164.5,262.5 164.5,260.5 164.5,258.5C 166.833,258.5 169.167,258.5 171.5,258.5C 171.5,256.833 171.5,255.167 171.5,253.5C 168.453,254.145 166.287,253.145 165,250.5C 164.333,246.5 164.333,242.5 165,238.5C 165.708,237.619 166.542,236.953 167.5,236.5 Z"/></g>
<g><path style="opacity:1" fill="#3f6780" d="M 204.5,236.5 C 202.167,236.5 199.833,236.5 197.5,236.5C 197.5,240.167 197.5,243.833 197.5,247.5C 196.167,247.5 194.833,247.5 193.5,247.5C 193.5,243.833 193.5,240.167 193.5,236.5C 191.167,236.5 188.833,236.5 186.5,236.5C 186.5,245.833 186.5,255.167 186.5,264.5C 185.506,255.014 185.173,245.348 185.5,235.5C 188.5,235.5 191.5,235.5 194.5,235.5C 195.167,250.167 195.833,250.167 196.5,235.5C 199.385,235.194 202.052,235.527 204.5,236.5 Z"/></g>
<g><path style="opacity:1" fill="#85cbe8" d="M 204.5,236.5 C 204.5,245.833 204.5,255.167 204.5,264.5C 201.833,264.5 199.167,264.5 196.5,264.5C 196.5,260.833 196.5,257.167 196.5,253.5C 195.5,253.5 194.5,253.5 193.5,253.5C 193.5,257.167 193.5,260.833 193.5,264.5C 191.167,264.5 188.833,264.5 186.5,264.5C 186.5,255.167 186.5,245.833 186.5,236.5C 188.833,236.5 191.167,236.5 193.5,236.5C 193.5,240.167 193.5,243.833 193.5,247.5C 194.833,247.5 196.167,247.5 197.5,247.5C 197.5,243.833 197.5,240.167 197.5,236.5C 199.833,236.5 202.167,236.5 204.5,236.5 Z"/></g>
<g><path style="opacity:1" fill="#82c7e4" d="M 213.5,236.5 C 218.511,236.334 223.511,236.501 228.5,237C 229,237.5 229.5,238 230,238.5C 230.5,247.16 230.666,255.827 230.5,264.5C 227.833,264.5 225.167,264.5 222.5,264.5C 222.5,262.5 222.5,260.5 222.5,258.5C 221.5,258.5 220.5,258.5 219.5,258.5C 219.5,260.5 219.5,262.5 219.5,264.5C 216.833,264.5 214.167,264.5 211.5,264.5C 211.334,255.827 211.5,247.16 212,238.5C 212.717,237.956 213.217,237.289 213.5,236.5 Z"/></g>
<g><path style="opacity:1" fill="#86cdea" d="M 249.5,259.5 C 249.579,260.93 249.246,262.264 248.5,263.5C 244.893,264.489 241.226,264.823 237.5,264.5C 237.5,255.167 237.5,245.833 237.5,236.5C 239.833,236.5 242.167,236.5 244.5,236.5C 244.5,243.833 244.5,251.167 244.5,258.5C 246.415,258.216 248.081,258.549 249.5,259.5 Z"/></g>
<g><path style="opacity:1" fill="#82c6e3" d="M 273.5,236.5 C 278.167,236.5 282.833,236.5 287.5,236.5C 287.795,238.735 287.461,240.735 286.5,242.5C 283.5,242.5 280.5,242.5 277.5,242.5C 277.5,247.833 277.5,253.167 277.5,258.5C 278.5,258.5 279.5,258.5 280.5,258.5C 280.5,255.167 280.5,251.833 280.5,248.5C 283.167,248.5 285.833,248.5 288.5,248.5C 288.666,253.179 288.499,257.845 288,262.5C 287.5,263 287,263.5 286.5,264C 281.5,264.667 276.5,264.667 271.5,264C 271,263.5 270.5,263 270,262.5C 269.333,254.5 269.333,246.5 270,238.5C 270.816,237.177 271.983,236.511 273.5,236.5 Z"/></g>
<g><path style="opacity:1" fill="#48738c" d="M 273.5,236.5 C 278.305,235.513 283.305,235.179 288.5,235.5C 288.813,238.247 288.48,240.914 287.5,243.5C 286.893,243.376 286.56,243.043 286.5,242.5C 287.461,240.735 287.795,238.735 287.5,236.5C 282.833,236.5 278.167,236.5 273.5,236.5 Z"/></g>
<g><path style="opacity:1" fill="#5a8da8" d="M 302.5,236.5 C 300.167,236.5 297.833,236.5 295.5,236.5C 295.5,245.833 295.5,255.167 295.5,264.5C 294.506,255.014 294.173,245.348 294.5,235.5C 297.385,235.194 300.052,235.527 302.5,236.5 Z"/></g>
<g><path style="opacity:1" fill="#84c9e6" d="M 295.5,264.5 C 295.5,255.167 295.5,245.833 295.5,236.5C 297.833,236.5 300.167,236.5 302.5,236.5C 302.5,240.167 302.5,243.833 302.5,247.5C 303.5,247.5 304.5,247.5 305.5,247.5C 305.5,243.5 305.5,239.5 305.5,235.5C 308.167,235.5 310.833,235.5 313.5,235.5C 313.5,245.167 313.5,254.833 313.5,264.5C 310.833,264.5 308.167,264.5 305.5,264.5C 305.5,260.833 305.5,257.167 305.5,253.5C 304.5,253.5 303.5,253.5 302.5,253.5C 302.5,257.167 302.5,260.833 302.5,264.5C 300.167,264.5 297.833,264.5 295.5,264.5 Z"/></g>
<g><path style="opacity:1" fill="#81c6e3" d="M 325.5,235.5 C 330.447,234.628 334.613,235.961 338,239.5C 338.667,246.5 338.667,253.5 338,260.5C 337.5,262.333 336.333,263.5 334.5,264C 330.833,264.667 327.167,264.667 323.5,264C 322.299,263.097 321.465,261.931 321,260.5C 320.333,253.5 320.333,246.5 321,239.5C 322.397,237.93 323.897,236.596 325.5,235.5 Z"/></g>
<g><path style="opacity:1" fill="#84c9e6" d="M 347.5,236.5 C 351.167,236.5 354.833,236.5 358.5,236.5C 358.5,238.167 358.5,239.833 358.5,241.5C 356.265,241.205 354.265,241.539 352.5,242.5C 352.5,244.167 352.5,245.833 352.5,247.5C 354.792,247.244 356.959,247.577 359,248.5C 359.667,253.167 359.667,257.833 359,262.5C 358.5,263 358,263.5 357.5,264C 353.514,264.499 349.514,264.666 345.5,264.5C 345.5,262.5 345.5,260.5 345.5,258.5C 347.833,258.5 350.167,258.5 352.5,258.5C 352.784,256.585 352.451,254.919 351.5,253.5C 348.192,254.026 346.026,252.693 345,249.5C 344.333,246.167 344.333,242.833 345,239.5C 345.377,238.058 346.21,237.058 347.5,236.5 Z"/></g>
<g><path style="opacity:1" fill="#3f6780" d="M 384.5,236.5 C 382.167,236.5 379.833,236.5 377.5,236.5C 377.5,240.167 377.5,243.833 377.5,247.5C 376.167,247.5 374.833,247.5 373.5,247.5C 373.5,243.833 373.5,240.167 373.5,236.5C 371.167,236.5 368.833,236.5 366.5,236.5C 366.5,245.833 366.5,255.167 366.5,264.5C 365.506,255.014 365.173,245.348 365.5,235.5C 368.5,235.5 371.5,235.5 374.5,235.5C 375.167,250.167 375.833,250.167 376.5,235.5C 379.385,235.194 382.052,235.527 384.5,236.5 Z"/></g>
<g><path style="opacity:1" fill="#85cbe8" d="M 384.5,236.5 C 384.5,245.833 384.5,255.167 384.5,264.5C 381.833,264.5 379.167,264.5 376.5,264.5C 376.5,260.833 376.5,257.167 376.5,253.5C 375.5,253.5 374.5,253.5 373.5,253.5C 373.5,257.167 373.5,260.833 373.5,264.5C 371.167,264.5 368.833,264.5 366.5,264.5C 366.5,255.167 366.5,245.833 366.5,236.5C 368.833,236.5 371.167,236.5 373.5,236.5C 373.5,240.167 373.5,243.833 373.5,247.5C 374.833,247.5 376.167,247.5 377.5,247.5C 377.5,243.833 377.5,240.167 377.5,236.5C 379.833,236.5 382.167,236.5 384.5,236.5 Z"/></g>
<g><path style="opacity:1" fill="#3c617a" d="M 125.5,236.5 C 127.948,235.527 130.615,235.194 133.5,235.5C 133.815,239.371 133.482,243.038 132.5,246.5C 132.5,243.167 132.5,239.833 132.5,236.5C 130.167,236.5 127.833,236.5 125.5,236.5 Z"/></g>
<g><path style="opacity:1" fill="#5a8da8" d="M 347.5,236.5 C 351.298,235.517 355.298,235.183 359.5,235.5C 359.5,237.833 359.5,240.167 359.5,242.5C 357.167,242.5 354.833,242.5 352.5,242.5C 354.265,241.539 356.265,241.205 358.5,241.5C 358.5,239.833 358.5,238.167 358.5,236.5C 354.833,236.5 351.167,236.5 347.5,236.5 Z"/></g>
<g><path style="opacity:1" fill="#0f2037" d="M 219.5,242.5 C 220.5,242.5 221.5,242.5 222.5,242.5C 222.5,245.833 222.5,249.167 222.5,252.5C 221.5,252.5 220.5,252.5 219.5,252.5C 219.5,249.167 219.5,245.833 219.5,242.5 Z"/></g>
<g><path style="opacity:1" fill="#3e647d" d="M 249.5,259.5 C 248.081,258.549 246.415,258.216 244.5,258.5C 244.5,251.167 244.5,243.833 244.5,236.5C 242.167,236.5 239.833,236.5 237.5,236.5C 237.5,245.833 237.5,255.167 237.5,264.5C 236.506,255.014 236.173,245.348 236.5,235.5C 239.5,235.5 242.5,235.5 245.5,235.5C 245.5,242.833 245.5,250.167 245.5,257.5C 247.288,257.215 248.955,257.548 250.5,258.5C 250.376,259.107 250.043,259.44 249.5,259.5 Z"/></g>
<g><path style="opacity:1" fill="#13263d" d="M 328.5,242.5 C 329.5,242.5 330.5,242.5 331.5,242.5C 331.666,247.511 331.499,252.511 331,257.5C 330.586,257.957 330.086,258.291 329.5,258.5C 328.505,253.208 328.172,247.875 328.5,242.5 Z"/></g>
<g><path style="opacity:1" fill="#355871" d="M 351.5,253.5 C 352.451,254.919 352.784,256.585 352.5,258.5C 350.167,258.5 347.833,258.5 345.5,258.5C 345.5,260.5 345.5,262.5 345.5,264.5C 344.532,262.393 344.198,260.059 344.5,257.5C 346.833,257.5 349.167,257.5 351.5,257.5C 351.5,256.167 351.5,254.833 351.5,253.5 Z"/></g>
</svg>
